<?xml version="1.0" standalone="no"?>
<!DOCTYPE svg PUBLIC "-//W3C//DTD SVG 20010904//EN"
 "http://www.w3.org/TR/2001/REC-SVG-20010904/DTD/svg10.dtd">
<svg version="1.0" xmlns="http://www.w3.org/2000/svg"
 width="512.000000pt" height="512.000000pt" viewBox="0 0 512.000000 512.000000"
 preserveAspectRatio="xMidYMid meet">
<metadata>
Created by potrace 1.14, written by Peter Selinger 2001-2017
</metadata>
<g transform="translate(0.000000,512.000000) scale(0.100000,-0.100000)"
fill="#000000" stroke="none">
<path d="M0 3945 c0 -822 3 -1175 11 -1175 7 0 8 16 3 46 -5 36 -4 45 6 39 9
-6 11 2 5 35 -5 32 -4 41 5 35 9 -6 10 0 5 24 -4 21 -3 31 5 31 8 0 10 9 6 25
-4 15 -2 25 4 25 6 0 8 11 4 26 -5 20 -4 25 5 20 9 -6 10 0 5 20 -5 20 -4 25
6 19 9 -5 10 -2 5 14 -4 13 -2 21 5 21 7 0 9 8 5 21 -5 16 -4 19 5 14 9 -5 10
-2 5 14 -4 13 -2 21 5 21 7 0 10 7 6 15 -3 8 -1 15 5 15 6 0 9 7 5 15 -3 8 -1
15 5 15 6 0 9 7 5 15 -3 8 -1 15 4 15 5 0 6 7 3 17 -5 11 -3 14 6 8 10 -6 11
-2 6 15 -4 14 -3 20 3 16 13 -8 23 19 15 41 -4 10 -2 14 4 10 12 -8 26 20 17
34 -3 5 0 9 6 9 6 0 8 5 5 10 -3 6 -1 10 5 10 6 0 9 4 6 9 -8 12 4 42 14 36 4
-3 11 2 14 11 3 8 2 12 -4 9 -6 -4 -5 5 1 19 7 14 16 23 20 20 5 -3 6 1 3 9
-3 9 8 28 25 46 31 31 40 48 21 36 -20 -12 -10 6 18 32 15 15 20 23 12 19 -8
-4 -4 2 10 14 14 12 19 19 12 15 -11 -6 -12 -3 -3 14 7 11 14 21 17 21 3 0 2
-4 -1 -10 -15 -24 4 -7 21 18 17 26 17 27 -2 12 -18 -14 -18 -14 -5 5 8 11 26
31 41 45 14 14 21 23 15 20 -6 -3 1 6 15 20 14 14 19 21 10 16 -8 -5 3 8 26
30 22 21 31 32 19 24 -11 -8 5 10 35 40 31 30 42 44 25 30 -17 -14 -4 1 29 33
34 32 88 87 121 121 33 34 49 48 35 31 -14 -17 0 -6 30 25 30 30 46 44 35 30
l-20 -25 30 24 c17 14 45 41 64 60 19 20 30 29 25 21 -5 -9 3 -3 17 14 14 16
31 26 37 22 6 -3 14 -1 18 5 5 8 3 9 -6 4 -9 -6 -11 -4 -6 4 5 7 14 10 22 7 7
-3 16 0 20 6 4 7 3 8 -4 4 -7 -4 -12 -5 -12 -2 0 3 10 10 21 17 17 9 20 8 14
-3 -4 -7 3 -2 15 12 12 14 19 19 15 13 -11 -22 5 -14 32 15 15 15 23 21 19 15
-12 -22 2 -14 35 18 18 17 37 28 46 25 9 -4 11 -2 7 6 -5 8 -2 9 10 5 11 -5
15 -3 10 5 -5 8 -2 9 10 5 11 -5 15 -3 10 5 -5 8 -2 9 10 5 9 -4 15 -3 12 2
-7 11 22 23 35 15 5 -3 9 0 9 6 0 6 4 9 9 6 14 -9 42 5 34 17 -4 6 0 8 10 4
10 -3 17 -2 17 3 0 5 7 6 17 3 12 -5 14 -3 8 7 -6 10 -4 12 8 7 10 -3 17 -2
17 3 0 5 7 6 17 3 11 -5 14 -3 8 6 -6 10 -2 11 15 6 16 -5 20 -4 15 5 -5 9 -1
10 15 5 16 -5 20 -4 15 5 -5 9 -1 10 15 5 16 -5 20 -4 15 5 -5 9 -1 10 15 5
16 -5 20 -4 15 5 -5 9 -1 10 15 5 17 -5 20 -4 15 5 -6 10 -1 11 19 6 20 -5 26
-3 21 5 -5 8 -1 9 14 4 13 -4 21 -2 21 5 0 6 10 8 26 4 20 -5 25 -4 20 5 -6 9
0 10 20 5 20 -5 25 -4 19 6 -6 9 0 10 25 5 24 -5 31 -4 25 5 -5 8 3 9 30 4 28
-5 36 -4 31 5 -6 8 4 10 35 5 31 -5 40 -4 35 5 -6 9 5 10 43 5 28 -4 51 -3 51
2 0 5 86 9 190 9 105 0 190 -4 190 -8 0 -5 23 -6 51 -2 39 6 50 4 44 -5 -6 -9
3 -10 35 -5 32 5 41 4 35 -5 -6 -9 0 -10 24 -5 21 4 31 3 31 -5 0 -8 10 -9 31
-5 23 5 29 4 24 -4 -5 -8 1 -10 21 -5 21 5 25 4 19 -6 -6 -10 -2 -11 19 -6 16
4 26 2 26 -4 0 -7 8 -9 21 -5 16 5 19 4 14 -5 -5 -9 -2 -10 14 -5 13 4 21 2
21 -5 0 -7 8 -9 21 -5 16 5 19 4 14 -5 -5 -9 -1 -10 15 -5 16 5 20 4 15 -5 -5
-9 -1 -10 15 -5 16 5 20 4 15 -5 -5 -9 -1 -10 15 -5 16 5 20 4 15 -5 -5 -9 -1
-10 15 -5 14 4 20 3 16 -3 -8 -13 19 -23 41 -15 12 5 14 3 8 -7 -6 -10 -4 -12
8 -7 10 3 17 2 17 -4 0 -6 4 -8 9 -5 12 8 42 -4 36 -14 -6 -10 24 -22 36 -14
5 3 9 0 9 -6 0 -6 5 -8 10 -5 6 3 10 1 10 -5 0 -6 5 -8 10 -5 6 3 10 1 10 -5
0 -6 5 -8 10 -5 5 3 10 1 10 -5 0 -6 5 -8 10 -5 5 3 10 1 10 -5 0 -6 4 -8 10
-5 6 3 10 1 10 -5 0 -6 4 -8 10 -5 6 3 10 2 10 -4 0 -6 10 -15 21 -22 16 -8
20 -8 14 1 -6 9 -2 9 14 1 11 -7 21 -14 21 -17 0 -3 -5 -2 -10 1 -5 3 -10 4
-10 1 0 -3 10 -10 21 -17 16 -8 20 -8 14 1 -6 9 -2 9 14 1 11 -7 21 -14 21
-17 0 -3 -4 -2 -10 1 -5 3 -10 4 -10 1 0 -3 10 -10 21 -17 17 -9 20 -8 14 3
-4 7 3 2 15 -12 12 -14 19 -18 15 -10 -4 8 3 3 16 -11 13 -14 33 -32 44 -40
18 -12 19 -12 10 1 -5 9 1 4 15 -10 14 -14 21 -19 16 -10 -5 8 6 -1 25 -21 19
-19 48 -46 64 -60 l30 -24 -25 29 c-14 15 52 -48 145 -141 94 -94 179 -181
190 -194 l20 -24 -21 15 c-11 8 -4 0 15 -19 20 -19 29 -30 21 -25 -9 5 -4 -2
10 -16 14 -14 19 -20 10 -15 -13 9 -13 8 -1 -10 8 -11 26 -31 40 -44 14 -13
20 -20 13 -16 -11 6 -12 3 -3 -14 12 -22 27 -30 16 -8 -10 18 25 -25 37 -47 7
-14 7 -17 -2 -11 -9 6 -9 2 -1 -14 7 -11 16 -21 21 -21 5 0 14 -10 21 -21 8
-16 8 -20 -1 -14 -6 4 -2 -11 9 -34 12 -23 26 -41 32 -41 6 0 7 -4 4 -10 -3
-5 -1 -10 5 -10 6 0 8 -4 5 -10 -3 -5 -1 -10 5 -10 6 0 9 -4 6 -9 -8 -12 4
-42 14 -36 10 6 22 -24 14 -36 -3 -5 -1 -9 5 -9 6 0 7 -7 4 -17 -5 -12 -3 -14
7 -8 10 6 12 4 7 -8 -3 -10 -2 -17 3 -17 5 0 6 -7 3 -17 -5 -12 -3 -14 7 -8
10 6 12 4 7 -8 -3 -10 -2 -17 3 -17 5 0 6 -7 3 -17 -5 -11 -3 -14 6 -8 10 6
11 2 6 -15 -5 -16 -4 -20 5 -15 9 5 10 1 5 -15 -5 -16 -4 -20 5 -15 9 5 10 1
5 -15 -5 -17 -4 -20 5 -15 10 6 11 1 6 -19 -5 -20 -3 -26 5 -21 8 5 9 1 4 -14
-4 -13 -2 -21 5 -21 7 0 9 -8 5 -21 -5 -16 -4 -19 5 -14 10 6 11 1 6 -19 -4
-15 -2 -26 4 -26 6 0 8 -11 4 -26 -5 -20 -4 -25 6 -19 9 6 10 0 5 -25 -5 -24
-4 -31 5 -25 9 6 10 -1 5 -24 -4 -21 -3 -31 5 -31 8 0 10 -12 5 -41 -5 -31 -4
-40 5 -34 9 5 10 -6 5 -49 -4 -31 -3 -56 1 -56 5 0 9 -78 10 -174 0 -99 -4
-172 -9 -169 -5 3 -6 -19 -2 -52 6 -45 5 -56 -5 -50 -9 6 -11 -2 -5 -35 5 -31
4 -41 -5 -35 -8 5 -9 -3 -4 -30 5 -29 4 -36 -6 -30 -9 6 -10 0 -5 -25 5 -25 4
-31 -5 -25 -10 6 -11 1 -6 -19 4 -15 2 -26 -4 -26 -6 0 -8 -11 -4 -26 5 -20 4
-25 -6 -19 -9 5 -10 2 -5 -14 4 -13 2 -21 -5 -21 -7 0 -9 -8 -5 -21 5 -16 4
-19 -5 -14 -9 5 -10 2 -5 -14 4 -13 2 -21 -5 -21 -7 0 -9 -8 -5 -21 5 -16 4
-19 -5 -14 -9 5 -10 1 -5 -15 5 -17 4 -21 -6 -15 -9 6 -11 3 -6 -8 3 -10 2
-17 -3 -17 -5 0 -6 -7 -3 -17 5 -11 3 -14 -6 -8 -10 6 -11 2 -6 -15 5 -17 4
-21 -6 -15 -9 6 -11 3 -6 -8 8 -22 -2 -49 -16 -40 -6 4 -8 0 -4 -10 3 -10 2
-17 -4 -17 -6 0 -8 -4 -5 -9 8 -12 -4 -42 -14 -36 -10 6 -22 -24 -14 -36 3 -5
0 -9 -6 -9 -6 0 -8 -4 -5 -10 3 -5 1 -10 -4 -10 -6 0 -22 -23 -37 -51 -14 -28
-21 -48 -15 -44 21 12 11 -6 -16 -32 -16 -15 -22 -23 -15 -18 11 6 12 3 3 -13
-6 -11 -18 -22 -27 -26 -9 -3 -14 -13 -10 -21 3 -8 0 -17 -6 -21 -7 -4 -8 -3
-4 4 4 7 5 12 3 12 -2 0 -17 -19 -32 -42 -21 -31 -23 -39 -9 -28 18 14 18 14
5 -5 -8 -11 -26 -31 -41 -45 -14 -14 -19 -21 -10 -16 8 5 -1 -6 -21 -25 -19
-19 -28 -29 -19 -24 9 6 -3 -8 -25 -30 -23 -22 -32 -33 -21 -25 12 8 -16 -20
-61 -63 -45 -43 -115 -113 -155 -155 -40 -42 -66 -68 -58 -57 8 12 -3 3 -25
-20 -22 -22 -35 -34 -30 -25 6 9 -5 0 -24 -19 -19 -20 -30 -29 -25 -21 5 9 -2
4 -16 -10 -14 -15 -34 -33 -45 -41 -19 -13 -19 -13 -5 6 13 17 11 16 -17 -4
-29 -20 -48 -41 -24 -26 6 3 384 5 840 5 l831 0 0 2210 0 2210 -2560 0 -2560
0 0 -1175z m880 391 c0 -2 -8 -10 -17 -17 -16 -13 -17 -12 -4 4 13 16 21 21
21 13z m2731 -23 c13 -16 12 -17 -3 -4 -17 13 -22 21 -14 21 2 0 10 -8 17 -17z
m299 -280 c0 -8 -13 5 -110 105 l-105 107 108 -105 c59 -57 107 -106 107 -107z
m-3240 124 c0 -2 -10 -12 -22 -23 l-23 -19 19 23 c18 21 26 27 26 19z m3240
-3070 c0 -1 -48 -50 -107 -107 l-108 -105 105 108 c97 99 110 112 110 104z"/>
<path d="M2150 4177 c0 -5 -11 -6 -25 -3 -15 4 -25 2 -25 -4 0 -7 -8 -9 -21
-5 -16 5 -19 4 -14 -5 5 -9 1 -10 -15 -5 -17 5 -21 4 -15 -6 6 -9 3 -11 -8 -6
-10 3 -17 2 -17 -4 0 -6 -4 -7 -10 -4 -5 3 -10 1 -10 -5 0 -6 -4 -9 -9 -6 -5
3 -12 -1 -15 -10 -3 -8 -12 -14 -20 -12 -8 2 -28 -11 -43 -28 -15 -16 -21 -21
-13 -10 8 12 -11 -4 -42 -34 -58 -55 -78 -80 -35 -44 12 10 3 0 -20 -22 -40
-39 -57 -64 -33 -49 6 4 3 -9 -6 -29 -10 -19 -22 -32 -27 -29 -6 4 -8 0 -4
-10 3 -10 2 -17 -3 -17 -5 0 -7 -7 -4 -15 4 -8 1 -15 -6 -15 -7 0 -9 -8 -5
-21 5 -15 4 -19 -5 -14 -8 5 -9 -3 -4 -30 5 -27 4 -36 -5 -31 -8 5 -11 -12
-11 -59 0 -47 3 -64 11 -59 9 5 10 -4 5 -31 -5 -26 -4 -35 4 -30 7 5 9 -2 4
-21 -5 -21 -4 -25 6 -19 10 6 12 4 7 -8 -3 -10 -2 -17 3 -17 5 0 6 -7 3 -17
-4 -10 -2 -14 4 -10 12 8 26 -20 17 -34 -3 -5 -1 -9 5 -9 6 0 15 -10 22 -21 9
-17 8 -20 -3 -14 -7 5 3 -7 23 -26 19 -19 26 -27 14 -19 -12 8 -3 -3 19 -24
23 -22 32 -33 21 -25 -18 13 -19 13 -7 -3 8 -9 19 -15 27 -12 7 3 27 -12 45
-33 18 -21 29 -31 25 -23 -4 8 2 5 12 -6 23 -27 60 -47 73 -39 6 3 10 2 10 -4
0 -6 7 -7 17 -4 11 4 14 3 9 -6 -6 -9 0 -10 20 -5 19 5 25 4 20 -5 -6 -8 0
-10 18 -5 14 3 26 2 26 -2 0 -5 40 -9 89 -9 51 0 87 4 84 9 -4 5 8 6 26 3 22
-5 30 -3 25 4 -4 7 1 9 15 4 12 -4 21 -2 21 4 0 6 7 7 17 4 12 -5 14 -3 8 7
-6 10 -4 12 8 7 10 -3 17 -2 17 4 0 6 5 7 10 4 6 -3 10 -1 10 5 0 6 4 9 9 6 5
-3 12 1 15 10 3 8 12 14 20 12 8 -2 29 13 48 33 18 19 24 25 14 12 -34 -41
-12 -24 39 29 28 29 41 46 29 38 -11 -8 -4 0 15 19 20 19 29 30 21 25 -9 -5
-6 0 6 11 30 28 55 81 47 101 -5 12 -3 15 6 9 10 -6 11 -2 6 15 -5 17 -4 20 5
15 10 -6 11 -1 6 19 -5 19 -3 26 4 21 8 -5 9 9 4 46 -5 38 -4 50 5 45 7 -5 11
0 11 13 0 12 -5 21 -11 21 -8 0 -10 14 -6 45 4 29 3 45 -4 45 -6 0 -8 9 -4 20
4 12 2 20 -5 20 -7 0 -9 8 -5 21 5 16 4 19 -6 14 -9 -6 -11 -3 -6 8 3 10 2 17
-4 17 -6 0 -7 4 -4 10 6 9 -21 70 -31 70 -3 0 -2 -4 1 -10 15 -24 -4 -7 -21
18 -17 26 -17 27 1 12 10 -8 -23 27 -74 78 -84 84 -112 108 -96 82 4 -6 -4 -5
-19 1 -14 7 -23 16 -19 22 3 6 1 7 -5 4 -14 -10 -43 3 -36 15 4 6 -2 7 -16 3
-16 -5 -20 -4 -15 5 5 9 2 10 -14 5 -12 -4 -21 -2 -21 4 0 6 -12 8 -32 4 -20
-4 -29 -3 -25 4 4 7 -21 10 -73 10 -44 0 -80 -5 -80 -10z m391 -94 c13 -16 12
-17 -3 -4 -17 13 -22 21 -14 21 2 0 10 -8 17 -17z"/>
<path d="M2610 4028 c41 -45 50 -53 50 -45 0 2 -21 23 -47 47 l-48 45 45 -47z"/>
<path d="M3930 3985 c13 -14 26 -25 28 -25 3 0 -5 11 -18 25 -13 14 -26 25
-28 25 -3 0 5 -11 18 -25z"/>
<path d="M1885 3220 c10 -11 20 -20 23 -20 3 0 -3 9 -13 20 -10 11 -20 20 -23
20 -3 0 3 -9 13 -20z"/>
<path d="M1100 3099 c0 -7 -12 -9 -35 -5 -23 5 -35 3 -35 -4 0 -7 -8 -9 -21
-5 -16 5 -19 4 -14 -5 5 -9 1 -10 -15 -5 -16 5 -20 4 -15 -5 5 -9 1 -10 -15
-5 -13 4 -20 3 -17 -2 4 -5 -10 -17 -29 -27 -24 -11 -33 -12 -29 -4 4 7 -3 2
-15 -12 -12 -14 -18 -18 -14 -10 4 8 -8 -1 -27 -21 -19 -19 -25 -24 -14 -10
11 14 -7 -1 -40 -34 -33 -33 -67 -69 -75 -80 -14 -19 -14 -19 4 -5 19 15 19
14 2 -12 -17 -25 -36 -42 -21 -18 3 6 4 10 1 10 -12 0 -35 -60 -29 -76 5 -13
3 -15 -7 -9 -10 6 -12 4 -7 -8 3 -10 2 -17 -4 -17 -6 0 -8 -9 -4 -21 5 -14 3
-19 -4 -15 -7 5 -9 -3 -4 -25 3 -18 2 -30 -3 -27 -5 4 -9 -32 -9 -82 0 -50 4
-86 9 -82 5 3 6 -9 3 -27 -5 -22 -3 -30 4 -25 7 4 9 -1 4 -15 -4 -12 -2 -21 4
-21 6 0 7 -7 4 -17 -5 -12 -3 -14 7 -8 10 6 12 4 7 -9 -6 -16 17 -76 29 -76 3
0 2 5 -1 10 -15 24 4 7 21 -17 17 -27 17 -28 -2 -13 -18 14 -18 14 -4 -5 8
-11 42 -47 75 -80 33 -33 51 -48 40 -34 -11 14 -5 9 14 -10 19 -20 31 -29 27
-21 -4 8 2 4 14 -10 12 -14 19 -19 15 -12 -4 8 5 7 29 -4 19 -10 33 -22 29
-27 -3 -5 4 -6 17 -2 16 5 20 4 15 -5 -5 -9 -1 -10 15 -5 16 5 20 4 15 -5 -5
-9 -2 -10 14 -5 13 4 21 2 21 -5 0 -7 12 -9 35 -4 23 4 35 2 35 -5 0 -6 19
-11 45 -11 26 0 45 5 45 11 0 7 12 9 36 4 27 -5 34 -3 28 6 -5 9 0 10 20 5 20
-5 26 -3 21 5 -5 8 -1 9 15 4 17 -5 21 -4 15 6 -6 9 -3 11 8 6 20 -7 49 2 42
13 -2 4 7 12 21 19 20 9 24 9 19 -1 -4 -7 3 -2 16 12 13 14 20 19 15 10 -5 -8
6 1 25 21 19 19 27 26 19 15 -8 -12 9 2 38 29 53 51 71 74 29 39 -12 -10 -3 0
20 22 42 41 55 61 31 49 -7 -4 -5 0 4 8 10 8 15 17 11 20 -3 4 -1 7 6 7 7 0 9
5 6 10 -3 6 -2 10 4 10 6 0 7 7 4 17 -5 11 -3 14 6 8 10 -6 11 -2 6 15 -5 16
-4 20 5 15 9 -5 10 -2 5 14 -4 13 -2 21 5 21 6 0 8 10 4 25 -3 14 -2 25 3 25
5 0 9 36 9 80 0 44 -4 80 -9 80 -5 0 -6 11 -3 25 4 15 2 25 -4 25 -7 0 -9 8
-5 21 5 16 4 19 -5 14 -9 -5 -10 -1 -5 15 5 17 4 21 -6 15 -9 -6 -11 -3 -6 8
3 10 2 17 -4 17 -6 0 -7 5 -4 10 3 6 1 10 -6 10 -7 0 -9 3 -6 7 4 3 -1 12 -11
20 -9 8 -11 12 -4 8 24 -12 11 8 -31 49 -23 22 -32 32 -20 22 42 -35 24 -12
-29 39 -29 28 -46 41 -38 29 8 -11 0 -4 -19 15 -19 20 -30 29 -25 21 5 -9 -2
-4 -15 10 -13 14 -20 19 -16 12 5 -10 1 -10 -19 -1 -14 7 -23 15 -21 19 7 11
-22 20 -42 13 -11 -5 -14 -3 -8 6 6 10 2 11 -15 6 -16 -5 -20 -4 -15 4 5 8 -1
10 -21 5 -20 -5 -25 -4 -20 5 6 9 -1 11 -28 6 -24 -5 -36 -3 -36 4 0 6 -19 11
-45 11 -26 0 -45 -5 -45 -11z m-350 -182 c0 -2 -10 -12 -22 -23 l-23 -19 19
23 c18 21 26 27 26 19z m-15 -697 c10 -11 16 -20 13 -20 -3 0 -13 9 -23 20
-10 11 -16 20 -13 20 3 0 13 -9 23 -20z"/>
<path d="M3270 3099 c0 -7 -12 -9 -35 -5 -23 5 -35 3 -35 -4 0 -7 -8 -9 -20
-5 -12 4 -20 2 -20 -5 0 -7 -7 -10 -15 -6 -8 3 -15 1 -15 -4 0 -5 -7 -6 -17
-3 -10 4 -14 2 -10 -4 3 -5 -10 -17 -29 -27 -20 -9 -33 -12 -29 -6 13 22 -8 8
-43 -28 -20 -21 -30 -28 -22 -17 8 12 0 5 -18 -14 -18 -19 -45 -47 -60 -61
-16 -14 -21 -20 -12 -15 9 6 2 -3 -14 -19 -17 -16 -24 -25 -16 -21 8 4 4 -3
-10 -15 -14 -12 -19 -19 -13 -15 9 4 11 1 7 -9 -3 -9 -10 -14 -14 -11 -10 6
-22 -24 -14 -36 3 -5 1 -9 -5 -9 -6 0 -7 -7 -4 -17 5 -11 3 -14 -6 -8 -10 5
-11 2 -6 -14 4 -13 2 -21 -5 -21 -6 0 -8 -10 -4 -26 4 -15 3 -25 -2 -21 -5 3
-9 -38 -9 -93 0 -55 4 -96 9 -93 5 4 6 -6 2 -21 -4 -16 -2 -26 4 -26 7 0 9 -8
5 -21 -5 -16 -4 -19 6 -14 9 6 11 3 6 -8 -3 -10 -2 -17 4 -17 6 0 8 -4 5 -9
-8 -12 4 -42 14 -36 4 3 11 -2 14 -11 4 -10 2 -13 -7 -9 -6 4 -1 -3 13 -15 14
-12 18 -19 10 -15 -8 4 -1 -5 16 -21 16 -16 23 -24 14 -19 -9 6 -2 -3 16 -20
17 -16 45 -44 60 -60 16 -17 22 -22 14 -10 -8 11 2 4 22 -17 35 -36 56 -50 43
-28 -4 6 9 3 29 -6 19 -10 32 -22 29 -27 -4 -6 0 -8 10 -4 10 3 17 2 17 -3 0
-5 7 -7 15 -4 8 4 15 1 15 -6 0 -7 8 -9 20 -5 12 4 20 2 20 -5 0 -7 12 -9 35
-4 23 4 35 2 35 -5 0 -6 19 -11 45 -11 26 0 45 5 45 11 0 7 12 9 36 4 27 -5
34 -3 28 6 -5 9 0 10 20 5 20 -5 26 -3 21 5 -5 8 -1 9 15 4 17 -5 21 -4 15 6
-6 9 -3 11 9 6 16 -6 96 26 96 39 0 3 -4 2 -10 -1 -24 -15 -7 4 18 21 26 17
27 17 13 -2 -8 -10 5 2 28 28 23 26 60 63 84 84 23 20 35 33 27 28 -9 -5 -4 2
10 15 14 13 19 20 12 16 -8 -4 -7 5 4 29 10 19 22 32 27 29 6 -4 8 0 4 10 -3
10 -2 17 3 17 5 0 6 7 3 17 -5 12 -3 14 7 8 10 -6 11 -2 6 19 -5 20 -3 26 5
21 8 -5 9 1 4 24 -4 20 -3 31 4 31 7 0 11 27 11 70 0 43 -4 70 -11 70 -7 0 -8
11 -4 31 5 23 4 29 -4 24 -8 -5 -10 1 -5 21 5 21 4 25 -6 19 -10 -6 -12 -4 -7
8 3 10 2 17 -3 17 -5 0 -6 7 -3 17 4 10 2 14 -4 10 -5 -3 -17 10 -27 29 -11
24 -12 33 -4 29 7 -4 2 3 -12 16 -14 13 -19 20 -10 15 8 -5 -6 10 -32 33 -26
23 -63 60 -84 84 -20 23 -31 33 -23 23 14 -19 13 -19 -13 -2 -25 17 -42 36
-18 21 6 -3 10 -4 10 -1 0 13 -80 45 -96 39 -12 -5 -15 -3 -9 6 6 10 2 11 -15
6 -16 -5 -20 -4 -15 4 5 8 -1 10 -21 5 -20 -5 -25 -4 -20 5 6 9 -1 11 -28 6
-24 -5 -36 -3 -36 4 0 6 -19 11 -45 11 -26 0 -45 -5 -45 -11z"/>
<path d="M3690 2948 c41 -45 50 -53 50 -45 0 2 -21 23 -47 47 l-48 45 45 -47z"/>
<path d="M2919 2943 c-13 -16 -12 -17 4 -4 16 13 21 21 13 21 -2 0 -10 -8 -17
-17z"/>
<path d="M4 2560 c0 -80 2 -112 3 -72 2 39 2 105 0 145 -1 39 -3 7 -3 -73z"/>
<path d="M0 1175 l0 -1175 2560 0 2560 0 0 170 0 170 -1540 -2 c-881 -2 -1540
1 -1540 6 0 5 -23 6 -51 2 -38 -5 -49 -4 -43 5 5 9 -4 10 -35 5 -31 -5 -41 -3
-35 5 5 9 -3 10 -31 5 -27 -5 -35 -4 -30 4 6 9 -1 10 -25 5 -25 -5 -31 -4 -25
5 6 10 1 11 -19 6 -20 -5 -26 -4 -20 5 5 9 0 10 -20 5 -16 -4 -26 -2 -26 4 0
7 -8 9 -21 5 -15 -5 -19 -4 -14 4 5 8 -1 10 -21 5 -20 -5 -25 -4 -19 6 5 9 2
10 -15 5 -16 -5 -20 -4 -15 5 5 9 1 10 -15 5 -16 -5 -20 -4 -15 5 5 9 1 10
-15 5 -16 -5 -20 -4 -15 5 5 9 1 10 -15 5 -16 -5 -20 -4 -15 5 5 9 1 10 -15 5
-17 -5 -21 -4 -15 6 6 9 3 11 -8 6 -10 -3 -17 -2 -17 3 0 5 -7 6 -17 3 -12 -5
-14 -3 -8 7 6 10 4 12 -8 7 -10 -3 -17 -2 -17 3 0 5 -7 6 -17 3 -10 -4 -14 -2
-10 4 8 12 -20 26 -34 17 -5 -3 -9 0 -9 6 0 6 -4 9 -9 6 -13 -8 -42 4 -35 15
3 5 -3 6 -12 2 -12 -4 -15 -3 -10 5 5 8 1 10 -10 5 -12 -4 -15 -3 -10 5 5 8 1
10 -10 5 -12 -4 -15 -3 -10 5 4 8 2 10 -7 6 -9 -3 -28 8 -46 25 -33 32 -47 40
-35 19 4 -7 -4 -1 -19 14 -27 29 -43 37 -32 16 4 -7 -3 -2 -15 12 -12 14 -19
19 -15 12 6 -11 3 -12 -14 -3 -11 7 -21 14 -21 17 0 3 5 2 12 -2 7 -4 8 -3 4
4 -4 6 -13 9 -20 6 -8 -3 -17 0 -22 7 -5 8 -3 10 6 4 9 -5 11 -4 6 4 -4 6 -12
8 -18 5 -6 -4 -23 6 -37 22 -14 17 -22 23 -17 14 5 -8 -6 1 -25 21 -19 19 -47
46 -64 60 l-30 24 20 -25 c11 -14 -5 0 -35 30 -30 31 -44 42 -30 25 14 -17 -2
-3 -35 31 -33 34 -87 89 -121 121 -33 32 -46 47 -29 33 17 -14 6 0 -25 30 -30
30 -46 48 -35 40 12 -8 3 3 -19 24 -23 22 -34 35 -26 30 9 -5 4 2 -10 16 -14
14 -21 23 -15 20 6 -3 -1 6 -15 20 -15 14 -33 34 -41 45 -13 19 -13 19 5 5 19
-15 19 -14 2 13 -17 24 -36 41 -21 17 3 -5 4 -10 1 -10 -3 0 -10 10 -17 21 -9
17 -8 20 3 14 7 -4 2 3 -12 15 -14 12 -18 18 -10 14 8 -4 3 4 -12 19 -28 26
-38 44 -18 32 19 -12 10 5 -21 36 -17 18 -28 37 -25 46 3 8 2 12 -3 9 -4 -3
-13 6 -20 20 -6 14 -7 23 -1 19 6 -3 7 1 4 9 -3 9 -10 14 -14 11 -10 -6 -22
24 -14 36 3 5 0 9 -6 9 -6 0 -8 5 -5 10 3 6 1 10 -5 10 -6 0 -9 4 -6 9 9 14
-5 42 -17 34 -6 -4 -8 0 -4 10 8 22 -2 49 -15 41 -6 -4 -7 2 -3 16 5 17 4 21
-6 15 -9 -6 -11 -3 -6 8 3 10 2 17 -3 17 -5 0 -7 7 -4 15 4 8 1 15 -5 15 -6 0
-8 7 -5 15 4 8 1 15 -5 15 -6 0 -8 7 -5 15 4 8 1 15 -6 15 -7 0 -9 8 -5 21 5
16 4 19 -5 14 -9 -5 -10 -2 -5 14 4 13 2 21 -5 21 -7 0 -9 8 -5 21 5 16 4 19
-5 14 -10 -6 -11 -1 -6 19 5 20 4 26 -5 20 -9 -5 -10 0 -5 20 4 15 2 26 -4 26
-6 0 -8 10 -4 25 4 16 2 25 -6 25 -8 0 -9 10 -5 31 5 24 4 30 -5 24 -9 -6 -10
3 -5 35 6 33 4 41 -5 35 -10 -6 -11 3 -6 39 5 30 4 46 -3 46 -8 0 -11 -353
-11 -1175z m655 -195 c10 -11 16 -20 13 -20 -3 0 -13 9 -23 20 -10 11 -16 20
-13 20 3 0 13 -9 23 -20z m216 -187 c13 -16 12 -17 -3 -4 -10 7 -18 15 -18 17
0 8 8 3 21 -13z"/>
<path d="M3690 2175 c-24 -25 -42 -45 -39 -45 3 0 25 20 49 45 24 25 42 45 39
45 -3 0 -25 -20 -49 -45z"/>
<path d="M2910 2186 c0 -2 8 -10 18 -17 15 -13 16 -12 3 4 -13 16 -21 21 -21
13z"/>
<path d="M2140 2006 c0 -4 -12 -5 -26 -2 -18 5 -24 3 -18 -5 5 -9 -1 -10 -20
-5 -20 5 -26 4 -20 -5 5 -9 2 -10 -9 -6 -10 3 -17 2 -17 -4 0 -6 -4 -7 -10 -4
-13 8 -50 -12 -73 -39 -10 -11 -16 -14 -12 -6 4 8 -7 -2 -25 -23 -18 -21 -38
-36 -45 -33 -8 3 -19 -3 -27 -12 -12 -16 -11 -16 7 -3 11 8 2 -3 -21 -25 -22
-21 -31 -32 -19 -24 12 8 5 0 -14 -19 -20 -19 -30 -31 -23 -26 11 6 12 3 3
-14 -7 -11 -16 -21 -22 -21 -6 0 -8 -4 -5 -9 9 -14 -5 -42 -17 -34 -6 4 -8 0
-4 -10 3 -10 2 -17 -3 -17 -5 0 -6 -7 -3 -17 5 -12 3 -14 -7 -8 -10 6 -11 2
-6 -19 5 -19 3 -26 -4 -21 -8 5 -9 -4 -4 -30 5 -27 4 -36 -5 -31 -8 5 -11 -12
-11 -59 0 -47 3 -64 11 -59 9 5 10 -4 5 -31 -5 -27 -4 -35 4 -30 9 5 10 1 5
-14 -4 -13 -2 -21 5 -21 7 0 10 -7 6 -15 -3 -8 -1 -15 4 -15 5 0 6 -7 3 -17
-4 -10 -2 -14 4 -10 5 3 17 -10 27 -29 9 -20 12 -33 6 -29 -24 15 -7 -10 33
-49 23 -22 32 -32 20 -22 -43 36 -23 11 35 -44 31 -30 50 -46 42 -34 -8 11 -2
6 13 -10 15 -17 35 -30 43 -28 8 2 17 -4 20 -12 3 -9 10 -13 15 -10 5 3 9 0 9
-6 0 -6 5 -8 10 -5 6 3 10 2 10 -4 0 -6 7 -7 17 -4 11 5 14 3 8 -6 -6 -10 -2
-11 15 -6 16 5 20 4 15 -5 -5 -9 -2 -10 14 -5 13 4 21 2 21 -5 0 -6 10 -8 25
-4 14 3 25 2 25 -3 0 -5 36 -10 80 -10 52 0 77 3 73 10 -4 7 5 8 25 4 20 -4
32 -2 32 4 0 6 9 8 21 4 16 -5 19 -4 14 5 -5 9 -1 10 15 5 14 -4 20 -3 16 3
-7 12 22 25 36 15 6 -3 8 -2 5 4 -4 6 5 15 19 22 15 6 23 7 19 1 -16 -26 12
-2 96 83 51 50 84 85 74 77 -18 -15 -18 -14 -1 13 17 24 36 41 21 17 -3 -5 -4
-10 -1 -10 10 0 37 61 31 70 -3 6 -2 10 4 10 6 0 7 7 4 17 -5 11 -3 14 6 8 10
-5 11 -2 6 14 -4 13 -2 21 5 21 7 0 9 8 5 20 -4 11 -2 20 4 20 7 0 8 16 4 45
-4 31 -2 45 6 45 6 0 11 9 11 21 0 13 -4 18 -11 13 -9 -5 -10 7 -5 45 5 37 4
51 -4 46 -7 -5 -9 2 -4 21 5 20 4 25 -6 19 -9 -5 -10 -2 -5 15 5 17 4 21 -6
15 -9 -6 -11 -3 -6 9 8 20 -17 73 -47 101 -12 11 -15 16 -6 11 8 -5 -1 6 -21
25 -19 19 -26 27 -15 19 12 -8 -1 9 -29 38 -51 53 -73 70 -39 29 10 -13 4 -7
-14 12 -19 20 -40 35 -48 33 -8 -2 -17 4 -20 12 -3 9 -10 13 -15 10 -5 -3 -9
0 -9 6 0 6 -4 8 -10 5 -5 -3 -10 -2 -10 4 0 6 -7 7 -17 4 -12 -5 -14 -3 -8 7
6 10 4 12 -8 7 -10 -3 -17 -2 -17 4 0 6 -9 8 -21 4 -14 -5 -19 -3 -15 4 5 7
-3 9 -25 4 -18 -3 -30 -2 -26 3 3 5 -33 9 -84 9 -49 0 -89 -4 -89 -9z m410
-960 c0 -2 -8 -10 -17 -17 -16 -13 -17 -12 -4 4 13 16 21 21 21 13z"/>
<path d="M1884 1898 l-19 -23 23 19 c12 11 22 21 22 23 0 8 -8 2 -26 -19z"/>
<path d="M2610 1095 c-24 -25 -42 -45 -39 -45 3 0 25 20 49 45 24 25 42 45 39
45 -3 0 -25 -20 -49 -45z"/>
</g>
</svg>
