<svg id="Layer_1" data-name="Layer 1" xmlns="http://www.w3.org/2000/svg" viewBox="0 0 484.02 190.65"><defs><style>.cls-1,.cls-2{isolation:isolate;}.cls-2{font-size:150px;font-family:AlpenableSlant, Alpenable Slant;letter-spacing:0.04em;}.cls-3{fill:#d0d1d0;}.cls-4{fill:#8b8b8b;}.cls-5{fill:#c7c8c8;}.cls-6{fill:#8e8f8f;}.cls-7{fill:#a4a5a4;}.cls-8{fill:#333;}.cls-9{fill:#4d4d4d;}.cls-10{fill:#777877;}.cls-11{fill:#babcbb;}.cls-12{fill:#636463;}.cls-13{fill:#bec0bf;}.cls-14{fill:#b1b1b1;}.cls-15{fill:#c5c6c5;}.cls-16{fill:#a6a7a6;}.cls-17{fill:#a2a3a2;}.cls-18{fill:#818181;}.cls-19{fill:#434343;}.cls-20{fill:#5c5c5c;}.cls-21{fill:#414242;}.cls-22{fill:#525253;}.cls-23{fill:#5a5a5a;}.cls-24{fill:#dadada;}.cls-25{fill:#626363;}.cls-26{fill:#6a6a6a;}.cls-27{fill:#474847;}.cls-28{fill:#262626;}.cls-29{fill:#5e5e5e;}.cls-30{fill:#fdfdfd;}.cls-31{fill:#fdfefd;}.cls-32{fill:#fefefe;}.cls-33{fill:#636363;}.cls-34{fill:#fbfbfb;}.cls-35{fill:#131214;}.cls-36{fill:#201f1f;}.cls-37{fill:#222121;}.cls-38{fill:#b5b7b6;}.cls-39{fill:#646563;}.cls-40{fill:#4f4f4f;}.cls-41{fill:#767776;}.cls-42{fill:#fcfcfc;}.cls-43{fill:#383939;}.cls-44{fill:#2a2b2a;}.cls-45{fill:#fafafa;}.cls-46{fill:#f4f4f4;}.cls-47{fill:#505050;}.cls-48{fill:#09080a;}.cls-49{fill:#454545;}.cls-50{fill:#c4c5c5;}.cls-51{fill:#9d9e9e;}.cls-52{fill:#b8b9b9;}.cls-53{fill:#858686;}.cls-54{fill:#acadad;}.cls-55{fill:#616161;}.cls-56{fill:#3d3d3e;}.cls-57{fill:#878888;}.cls-58{fill:#f8f8f8;}.cls-59{fill:#6e6e6e;}.cls-60{fill:#c7c7c7;}.cls-61{fill:#aaa;}.cls-62{fill:#646464;}.cls-63{fill:#838484;}.cls-64{fill:#b7b8b7;}.cls-65{fill:#a9aaaa;}.cls-66{fill:#969897;}.cls-67{fill:#2b2b2c;}.cls-68{fill:#161517;}.cls-69{fill:#393939;}.cls-70{fill:#f9f9f9;}.cls-71{fill:#c8c9c9;}.cls-72{fill:#9a9a9a;}.cls-73{fill:#545454;}.cls-74{fill:#d2d2d2;}.cls-75{fill:#c2c2c2;}.cls-76{fill:#494849;}.cls-77{fill:#232223;}.cls-78{fill:#2a2a2a;}.cls-79{fill:#666566;}.cls-80{fill:#adadad;}.cls-81{fill:#c2c3c3;}.cls-82{fill:#5f605f;}.cls-83{fill:#3a3a3a;}.cls-84{fill:#484949;}.cls-85{fill:#686968;}</style></defs><g id="pre_iew" data-name="pre iew"><g class="cls-1"><text class="cls-2" transform="translate(16.03 127.8)"><tspan xml:space="preserve">pre  iew</tspan></text></g></g><g id="Last_v" data-name="Last v"><path class="cls-3" d="M283.22,70.56l.76-1.21c.5-.15.49.23.45.5-.06.46-.18.91-.24,1.37-.73,1.13-1.57,2.2-2.34,3.31-.59.87,0,1.18.56,1.62s1,.3,1.33-.29c.18-.31.43-.58.63-.87.65-.91,1.54-1.77.65-3a.53.53,0,0,1,.34-.09c1.6.27,2-.07,2.21-1.8.38-.55.5-1.33,1.34-1.46a1.06,1.06,0,0,1,.36,1,51.52,51.52,0,0,1-3.51,5.9c-1.09,1.83-2.39,3.52-3.63,5.25a179.83,179.83,0,0,1-13.27,16.15c-.87.93-1.66,1.94-2.6,2.8-.47.44-.57.79,0,1.24,3.24,2.45,6.44,5,9.66,7.44.57.44,1.13.88,1.67,1.36a1.12,1.12,0,0,0,1.82,0c2.14-2.15,4.09-4.47,6.09-6.74a35,35,0,0,0,3.35-4c2.57-2.86,4.83-6,7.17-9a9.8,9.8,0,0,0,1-1.5c1.81-2.68,3.83-5.21,5.52-8,.36-.54.76-.92,1.41-.36.21.34,0,.6-.16.88a1.29,1.29,0,0,0,.82,2c.43.17.67,0,.91-.33s.36-.73.8-.84a.5.5,0,0,1,.53.36,3.89,3.89,0,0,1-1.2,1.92,2.41,2.41,0,0,1-2.07-.59c-.46-.33-.95-.72-1.41-.06s.1,1,.48,1.39c.56.61,1.37.44,2.05.69a84.25,84.25,0,0,1-5.38,8.1c-3.25,4.5-6.73,8.81-10.39,13a117.34,117.34,0,0,1-9.37,9.82.55.55,0,0,1-.39-.52c.44-1.18,1.56-1.77,2.32-2.67.32-.39.84-.68.26-1.28-.76-.78-1.28-.9-1.91-.35-1,.85-1.71,2-2.92,2.62-.37,0-.79.33-1.07-.18,0,0,0-.09,0-.12.64-1.41.63-1.4-.66-2.41-3.35-2.64-6.75-5.21-10.07-7.87-1.27-1-1.27-1-2.6-.2a.55.55,0,0,1-.45.07,8.1,8.1,0,0,1-.51-1.26,13,13,0,0,0,2.54-2.32c.42-.47.91-1,.12-1.58s-1.12-.87-1.85,0a6.27,6.27,0,0,1-2.63,2.31c-.05-.39-.64-.17-.66-.59a1.93,1.93,0,0,1,.73-.91c2-1.83,3.62-4,5.58-5.83a1.7,1.7,0,0,0,.47-.68,186,186,0,0,0,13.84-17.08C280.87,73.85,281.94,72.13,283.22,70.56Z" transform="translate(0 0)"/><path class="cls-4" d="M266.37,126.83a26,26,0,0,1-10.17,3.74,4.61,4.61,0,0,1-2.54-.36.82.82,0,0,1,.54-.82,5.52,5.52,0,0,0,3.27,0c-.22-.72-1.06-.89-1.22-1.57.87-1.16.84-1.12-.38-2.09-2.26-1.82-4.54-3.61-6.74-5.52a37.85,37.85,0,0,0-5.31-4.2,1,1,0,0,1,.74-.84c1.31-.49,2.39-1.4,3.73-1.82a19.32,19.32,0,0,0,4.68-2.55c.36-.24.66-.59,1.14-.59,3.85,3,7.93,5.66,11.87,8.52a14.63,14.63,0,0,1,2.08,1.77c-.09.93-1,1.09-1.53,1.58s-1.33.74-1.26,1.65c.23.32.52.57.72.9C266.43,125.33,266.93,126,266.37,126.83Z" transform="translate(0 0)"/><path class="cls-5" d="M306.84,82.08l-.51-.25c-.34-.65.25-1,.5-1.45.57-1-.13-1.35-.73-1.78-.76-.54-.92.18-1.22.6s-.4.87-1,1c-.59-.32-.91,0-1.18.48a59.17,59.17,0,0,0-6.12-4.93c-2.18-1.73-4.37-3.47-6.58-5.15a3.14,3.14,0,0,1-.93-.92l-.24-1c-.18-.68.31-1.11.58-1.62a1.42,1.42,0,0,0-1-2.09c-.3,0-.42.16-.54.37s-.35.62-.55.92a5.72,5.72,0,0,0-1,1.86c-.19.91.86,1,1.22,1.6a.88.88,0,0,1,.17.44c.62,1-.28,1.51-.75,2.09s-1,.24-1.45-.08A1.5,1.5,0,0,0,285,72c-.67.24-.93-.08-.95-.71a1.09,1.09,0,0,1,0-1.21c.16-.25.37-.56-.09-.76.3-1.3,1.37-2.12,2-3.22,3.38-5.61,6.19-11.52,9.09-17.38a1.39,1.39,0,0,0,.29-.88,3,3,0,0,1,.66-1.24,37.83,37.83,0,0,0,2.37-3.77c.33-.47.47-1.12,1.13-1.3.57.42.13.95.15,1.43a22.2,22.2,0,0,1-1.84,3.21,1.4,1.4,0,0,0,1,2c.42.06.51-.29.69-.54.62-.91.94-2,1.93-2.69.4-.06.78-.65,1.2,0,0,.83-.61,1.36-.91,2a109.18,109.18,0,0,0-5.86,11.32c-1.36,2.92-2.93,5.74-4.54,8.53-.4.69-.35,1.11.31,1.58,2.26,1.62,4.39,3.41,6.63,5.07,1.58,1.34,3.28,2.53,4.88,3.85.47.39.83.36,1.16-.2a24.45,24.45,0,0,0,1.3-2.42c2.72-4.6,4.75-9.55,7.25-14.26a16,16,0,0,1,1.07-2c.51-.7.76-1.61,1.52-2.14.6-.05.7.38.8.81a10.71,10.71,0,0,1-1.92,3.68c-.58.5-1.35,1.07-1.07,1.83a2.8,2.8,0,0,0,2.12,1.54c.26.06.56-.07.78.17-1.35,2.83-2.66,5.67-4.06,8.47s-3,5.75-4.7,8.52C307.26,81.62,307.15,81.94,306.84,82.08Z" transform="translate(0 0)"/><path class="cls-6" d="M309.23,30.37a21.61,21.61,0,0,1,4.17-3.12c1.3-.73,2.49-1.65,3.86-2.27.24-.11.45-.35.76-.2.2.92-.92,1.06-1,1.78a15.67,15.67,0,0,0-2.65,1.57c-.33.28-1.21.43-.69,1.08s1,1.21,1.92.74c.36-.19.7-.57,1.19-.26a1,1,0,0,1,.07.84,19.42,19.42,0,0,1-3.15,2.71c-.88.76-.92.82-.05,1.5,3.79,3,7.58,5.95,11.41,8.87a1.07,1.07,0,0,0,1.65-.07,7.28,7.28,0,0,1,2.42-1.72,1.74,1.74,0,0,1,1.36-.08,3,3,0,0,0,.86,1.35,1.29,1.29,0,0,0,1.81.14,13.39,13.39,0,0,1,2.95-1.78c.38-.06.72,0,.88.39l-6.22,4.31a.83.83,0,0,1-1,.05,6.5,6.5,0,0,1-1-.65c-1.28-1-1.27-1-2.51.15-.38.33-.68.78-1.24.86a2.32,2.32,0,0,1-1-.26c-4.55-3.55-9.12-7.08-13.67-10.64a2.42,2.42,0,0,1,1.17-2.55c.58-.43.46-.72,0-1.07a3.63,3.63,0,0,1-1.22-1.12c.15-.9-.48-.29-.74-.38A.51.51,0,0,1,309.23,30.37Z" transform="translate(0 0)"/><path class="cls-7" d="M254.18,110.34a31.85,31.85,0,0,1-6.72,3.72,9.67,9.67,0,0,0-3.6,2c-.55.72-1.44.66-2.18.94-.43.1-.88.14-1.31.27a16.86,16.86,0,0,1-2.93.07,7.7,7.7,0,0,1-1.26-.3,1.92,1.92,0,0,1-.94-.72,7.17,7.17,0,0,0-2.47-1.93c-.15-.39.18-.24.3-.23a14.72,14.72,0,0,0,9.6-2.17c1.08,0,1.79-.85,2.68-1.29a8.45,8.45,0,0,0,2.08-1.28,43.75,43.75,0,0,1,4.78-3.2c.93-.57,1.66,0,2.43.41a1.93,1.93,0,0,1,1.13.83,10.39,10.39,0,0,1,.63,1.19.82.82,0,0,1-.4.69C255.4,109.69,255,110.37,254.18,110.34Z" transform="translate(0 0)"/><path class="cls-8" d="M339.34,24.93v4a30.49,30.49,0,0,0-.09,3.31c0,.46.19,1-.35,1.29s-.93-.27-1.32-.57A68.34,68.34,0,0,1,332.43,28,16.85,16.85,0,0,0,331,26.75a8.64,8.64,0,0,1-1-1c-.35-.41-.62-.86-.09-1.34,2.86-1.08,5.74-.79,8.62-.13A1.22,1.22,0,0,1,339.34,24.93Z" transform="translate(0 0)"/><path class="cls-9" d="M331.24,26.54c1.41,1.11,2.54,2.51,3.85,3.72l3,2.74c.2.18.36.48.69.37s.38-.47.39-.79c0-.83,0-1.67,0-2.5,0-.39-.12-.81.19-1.15l0,7.41a6.33,6.33,0,0,1-3.58,1.56c-2.6-1.57-6-5.62-5.25-9.67A2.48,2.48,0,0,1,331.24,26.54Z" transform="translate(0 0)"/><path class="cls-10" d="M241.69,116.77l2.17-.71c1.45-.07,2.06,1.22,3,2,3.21,2.56,6.26,5.32,9.54,7.8a.34.34,0,0,0,.09.08c1.3.89,1.28,1.12-.17,1.91a7.53,7.53,0,0,1-2.75.73c.12.26.76.36.62.93l-.51.75a9.85,9.85,0,0,1-4.06-2.88c.45-.41.91-.12,1.37,0a5.14,5.14,0,0,0,2.24.14c.27,0,.61,0,.72-.34s-.21-.47-.42-.63a8.63,8.63,0,0,0-1-.8c-3.39-2.25-6-5.35-9.23-7.85A13.89,13.89,0,0,1,241.69,116.77Z" transform="translate(0 0)"/><path class="cls-11" d="M316.19,64.37a4.48,4.48,0,0,1-3.33-1.44c-.25-.56.54-1.79,1.41-2.17.6-.17,1,.26,1.32.6.56.53,1,.41,1.28-.24s.59-1.11.92-1.65.87-.9.38-1.46-1.08-1.19-2-.83c-.31-.16-.17-.73-.66-.72-.18-.72.43-1.08.74-1.57.69-.85,1.28-1.77,1.94-2.64s1.08-1.76,2.09-2.19a.75.75,0,0,1,.77.6c-.13,1-1,1.52-1.51,2.22-.75.94,0,1.21.52,1.69s.93.27,1.32-.24a27.39,27.39,0,0,1,2.43-2.95.65.65,0,0,1,.77.55C321.19,55.69,318.72,60.05,316.19,64.37Z" transform="translate(0 0)"/><path class="cls-12" d="M251.05,127.56l-1.45-.23-2.44-1.89c0-.55-.46-.71-.78-1-2.33-1.75-4.6-3.57-6.85-5.41-.8-.65-1.54-1.38-2.37-2l3.35,0c.51-.26.84.09,1.15.38,1.33,1.26,3,2.16,4.2,3.51,1.47,1.67,3.79,2.37,4.83,4.47.17.35.61.48.93.72s1.12.62.82,1.26S251.55,127.7,251.05,127.56Z" transform="translate(0 0)"/><path class="cls-13" d="M256.27,108.63a1.63,1.63,0,0,1-.65-1,35.18,35.18,0,0,0,2.73-2.29c.33-.33.84-.69.23-1.16s-.91-1.23-1.69-.59-1.37,1.21-2.08,1.78-.11,1-.13,1.54c-.82-.25-1.51-1-2.47-.72.33-.39.65-.79,1-1.18a25.94,25.94,0,0,0,4.58-3.92c.43-.41.7-1.06,1.43-1.09.12.21.6.06.5.49.77.4,1.57.77,1.89,1.69.66.21.68.7.5,1.25a5.88,5.88,0,0,1-2.3,2.65C258.69,107,257.84,108.36,256.27,108.63Z" transform="translate(0 0)"/><path class="cls-14" d="M264.94,124c-.37-.71.21-1.07.61-1.41.8-.68,1.66-1.29,2.5-1.93.31-.91,1.31-1.14,1.81-1.86.31-.26.6-.56,1.06-.39a1.56,1.56,0,0,1,.46.7c.33.93,1.21,1.31,1.89,1.89.22.24.59.43.28.84a39.26,39.26,0,0,1-7.18,5,3.15,3.15,0,0,0-.68-2.19.43.43,0,0,1,.33-.08c.5.09.81.78,1.38.53a11.68,11.68,0,0,0,2.46-1.66c.36-.28.19-.57-.08-.78-.49-.4-.91-1.11-1.71-.6-.6.38-1.19.79-1.78,1.19A4.29,4.29,0,0,1,264.94,124Z" transform="translate(0 0)"/><path class="cls-15" d="M271.17,119.2l-.28-.8a.66.66,0,0,1,.25-.63c1.5-1.21,2.77-2.68,4.33-3.82a.63.63,0,0,1,.45-.1c.31.36.69-.07,1,.07a7.33,7.33,0,0,1,2.36,1.89c.08.17.17.34.25.52a36.21,36.21,0,0,1-6,5.47c0-.37-.32-.45-.49-.67a25.72,25.72,0,0,1,2.83-2.49c.51-.43.46-.71,0-1.1-1.07-.85-1.37-.84-2.42.11C272.76,118.26,272.26,119.17,271.17,119.2Z" transform="translate(0 0)"/><path class="cls-16" d="M309.52,30.36c.5,0,.68-.49,1.19-.68-.06.45-.39.78-.3,1.18a20.91,20.91,0,0,1-2.5,2.39c-.39.31-.85.67-.31,1.15s.89,1.29,1.77.57c.37-.3.7-.68,1.25-.59a1.52,1.52,0,0,1-.22,1.21c-.31,1.29-1.48,1.89-2.23,2.81-.34.3-.62.69-1.13.72a.86.86,0,0,1-.65-.5c-.37-.86-1.3-1.18-1.84-1.87a2.3,2.3,0,0,1-.69-.94,27.37,27.37,0,0,1,4.26-4.28l0-.08h.07A6.73,6.73,0,0,1,309.52,30.36Z" transform="translate(0 0)"/><path class="cls-17" d="M320.89,50.7c-.2-.17-.29-.49-.64-.46-.2-1,.67-1.35,1.21-1.89s1-1.14,1.51-1.61c.32-.26.55-.69,1.07-.58a1.64,1.64,0,0,1,1,.24c-.22.77-.45,1.47.54,2,.61.35,1,.33,1.42-.14a10.21,10.21,0,0,1,2.82-2.33,1.66,1.66,0,0,0,1,.21l-6.17,5.78-.76-.49c-.45.12-.75-.2-1-.45A1.56,1.56,0,0,0,320.89,50.7Z" transform="translate(0 0)"/><path class="cls-18" d="M335.79,37.79l3.52-1.45a.75.75,0,0,1-.54,1,1.74,1.74,0,0,0-.55.21c-.55.38-1.84.54-1.58,1a2.2,2.2,0,0,0,2.29,1.46c.17,0,.33-.08.39.09a.45.45,0,0,1-.26.59L337,41.84a1.58,1.58,0,0,0-.95-.22,2,2,0,0,1-1.34-.69c-.7-.72-1.32-.57-2.07-.06s-1.15,1.12-2,1a4.25,4.25,0,0,0-1.46.23c-.11-.33.11-.53.33-.69a34.05,34.05,0,0,1,5.91-3.55A1.48,1.48,0,0,1,335.79,37.79Z" transform="translate(0 0)"/><path class="cls-19" d="M318.08,24.81a20.34,20.34,0,0,0-3.52,1.92c-.36.22-.67.58-1.16.52a33.36,33.36,0,0,1,13.25-6,16.29,16.29,0,0,1,8,0,10,10,0,0,1,4.26,2.32c.23.22.51.41.43.79-.41.16-.66-.15-.93-.35a9.49,9.49,0,0,0-2.43-1.4,16.57,16.57,0,0,0-10.3-.42,28.42,28.42,0,0,0-6.39,2.26A1.82,1.82,0,0,1,318.08,24.81Z" transform="translate(0 0)"/><path class="cls-20" d="M283.22,70.56a92.31,92.31,0,0,1-6.17,8.78A156.34,156.34,0,0,1,266,92.64c-.1.11-.2.1-.28,0,3.52-4.11,7.09-8.18,10.33-12.52,2.16-2.91,4.25-5.87,6.39-8.78C282.63,71,282.67,70.5,283.22,70.56Z" transform="translate(0 0)"/><path class="cls-21" d="M237.16,117.06c1.85.48,2.77,2.2,4.25,3.18,1.81,1.21,3.46,2.64,5.15,4,.34.28,1.14.44.6,1.2l-11-8.4C236.52,116.65,236.84,117,237.16,117.06Z" transform="translate(0 0)"/><path class="cls-5" d="M304.69,85.43c-1.18.54-1.93-.16-2.71-.88-.6-.56-.37-1,0-1.57a.8.8,0,0,1,1.33-.11A5.65,5.65,0,0,0,305.64,84C305.32,84.47,305.23,85.1,304.69,85.43Z" transform="translate(0 0)"/><path class="cls-22" d="M295.35,47.87c.38.14.18.37.08.56-2.93,5.76-5.57,11.68-9,17.18a3.3,3.3,0,0,1-.47.52,1.3,1.3,0,0,1,.34-1C289.63,59.55,292.36,53.64,295.35,47.87Z" transform="translate(0 0)"/><path class="cls-9" d="M308.12,31.53c-1.31,1.52-2.94,2.74-4.17,4.34a7.07,7.07,0,0,1-1.74,2.37c-1,1.11-1.6,2.47-2.76,3.4-1.2,1.58-2.09,3.36-3.12,5,0,.06-.13.12-.17.11s-.1-.1-.15-.16a50.42,50.42,0,0,1,10.78-14.21C307.18,32.06,307.48,31.52,308.12,31.53Z" transform="translate(0 0)"/><path class="cls-23" d="M265.7,92.61l.28,0c-2.1,2.61-4.53,4.92-6.79,7.39-1.66,1.54-3.32,3.08-5,4.6-.26.23-.45.8-1,.41A157.9,157.9,0,0,0,265.7,92.61Z" transform="translate(0 0)"/><path class="cls-24" d="M336.27,22.46c1.22.33,2.07,1.27,3.1,1.92l0,.55-.65-.34c-1.06-.47-2.22-.8-2.69-2,0,0,0-.07.06-.09A.18.18,0,0,1,336.27,22.46Z" transform="translate(0 0)"/><path class="cls-25" d="M247.43,109.42a9.18,9.18,0,0,1-4.76,2.57C244.29,111.2,245.75,110.1,247.43,109.42Z" transform="translate(0 0)"/><path class="cls-26" d="M232.77,114.39a3.38,3.38,0,0,1,2.47,1.93A14.8,14.8,0,0,1,232.77,114.39Z" transform="translate(0 0)"/><path class="cls-9" d="M309.52,30.36a3.25,3.25,0,0,1-1.3,1.08c.11-.57.65-.73,1-1.07Z" transform="translate(0 0)"/><path class="cls-27" d="M289.08,99.06a112.59,112.59,0,0,1-7.62,8.86c-.9,1-1.69,2.67-2.85,2.68s-2.09-1.41-3.12-2.21q-4.78-3.67-9.55-7.37c-.38-.3-.91-.47-.26-1.13a196.45,196.45,0,0,0,16.23-19.27c2,1.39,3.7.15,5.45-.58.75-.32,1.36-1,2.16-1.21,1.37,0,2,1.1,2.82,2,.29,1-.38,1.58-1,2.14-1.91,1.79-3.95,3.43-5.93,5.14-.84.72-1,1.76-1.57,2.62-.18.28.07.61.27.86a3.77,3.77,0,0,0,1.26,1.09A7.92,7.92,0,0,1,288,94.74a4.26,4.26,0,0,0,1.48,1.18c.78.37.9.86.5,1.63C289.68,98.07,289.12,98.42,289.08,99.06Z" transform="translate(0 0)"/><path class="cls-9" d="M275.92,113.85l-5,4.55L270,119a3.6,3.6,0,0,0-2.17-2.3,100.76,100.76,0,0,1-9.51-6.08,5.72,5.72,0,0,0-2-1c-.22,0-.48-.12-.43-.45.15-.16.39-.26.4-.53a39.57,39.57,0,0,0,5.81-5.17c1.6-1.39,1.6-1.4,3.36,0l10.24,8C277.08,112.53,277.08,112.53,275.92,113.85Z" transform="translate(0 0)"/><path class="cls-8" d="M289.08,99.06c-.26-.77.48-1.15.7-1.74s.24-.88-.36-1.1A3.72,3.72,0,0,1,287.81,95,8,8,0,0,0,285,92.82a3.59,3.59,0,0,1-1.37-1.31,1.14,1.14,0,0,1,0-1.29c1.43-3.12,4.55-4.5,6.78-6.79.73-.75,1.77-1.29,1.77-2.55a8.78,8.78,0,0,1,4.35,2.88,3.83,3.83,0,0,1,.66,4.77,63.3,63.3,0,0,1-4.82,6.57C291.36,96.47,290.2,97.74,289.08,99.06Z" transform="translate(0 0)"/><path class="cls-28" d="M297.23,88.53a.38.38,0,0,1-.13-.41c.6-2.5,0-4-2.18-5.53-.87-.6-1.8-1.14-2.7-1.71s-1.46-1.69-2.65-1.9c-.49.08-.81-.27-1.13-.53-.88-.71-1.73-1.46-2.6-2.2-.24-.21-.61-.43-.31-.86l3.58-5.76a33.15,33.15,0,0,1,4.3,3.18c2.93,2.24,5.84,4.53,8.75,6.81.32.25.84.42.58,1C300.93,83.28,299.22,86,297.23,88.53Z" transform="translate(0 0)"/><path class="cls-29" d="M285.53,75.39c.73,1.17,2,1.72,2.92,2.72a7.44,7.44,0,0,0,1.12.87,12.73,12.73,0,0,1-5.41,2.54c-.91.17-1.88.35-2.25-.9Z" transform="translate(0 0)"/><path class="cls-30" d="M293.4,99.91c0,.35-.32.54-.52.78-.49.57-1,1.17-1.48,1.71-.38.38-.54,1.27-1.12,1.09a6.18,6.18,0,0,1-1.79-1.33c-.46-.38-.11-.72.13-1q1.1-1.33,2.22-2.64a1.09,1.09,0,0,1,.46-.34C291.62,98.07,293.4,99.59,293.4,99.91Z" transform="translate(0 0)"/><path class="cls-30" d="M284.77,109.83a15,15,0,0,1-1.87-1.59c-.4-.48.31-.7.55-1,.68-.88,1.43-1.69,2.14-2.55.25-.3.48-.36.79-.09.48.42,1,.81,1.46,1.23.23.19.37.43.12.71l-2.82,3.07A2.1,2.1,0,0,1,284.77,109.83Z" transform="translate(0 0)"/><path class="cls-30" d="M267.55,96.4a6.86,6.86,0,0,1-2-1.66c-.34-.55.36-.78.64-1.11s.84-.85,1.24-1.29c1.2-1.35,1.15-1.29,2.6-.34.8.53.77.89.18,1.51-.81.86-1.57,1.78-2.35,2.67A1.82,1.82,0,0,1,267.55,96.4Z" transform="translate(0 0)"/><path class="cls-30" d="M298.44,93.35a8.34,8.34,0,0,1-.43.75c-.55.73-1.07,1.48-1.68,2.15-.27.3-.33,1.13-1,.73a4.52,4.52,0,0,1-1.87-1.57c-.13-.22.12-.42.27-.61.75-.92,1.54-1.82,2.21-2.79.36-.52.54-.5,1-.12A5.12,5.12,0,0,1,298.44,93.35Z" transform="translate(0 0)"/><path class="cls-30" d="M273,90.24a18.6,18.6,0,0,1-1.91-1.65c-.48-.55.26-.79.51-1.13.55-.72,1.17-1.39,1.7-2.12.4-.55.77-.76,1.32-.21.08.08.21.11.3.18,1.39,1,1.39,1,.28,2.37-.58.69-1.19,1.37-1.78,2.06Z" transform="translate(0 0)"/><path class="cls-30" d="M279.3,115.81a6.79,6.79,0,0,1-2.36-1.89c.85-.83,1.76-1.61,2.54-2.5s1.15-.9,2-.17c1.22,1.06,1.29,1,.2,2.08C280.88,114.14,280.09,115,279.3,115.81Z" transform="translate(0 0)"/><path class="cls-30" d="M281.18,79.93a3.9,3.9,0,0,1-.22.36l-2.14,2.85c-.32.44-.66.64-1.15.17a10.54,10.54,0,0,0-1.14-.85c-.41-.3-.39-.62-.09-1,.73-.93,1.43-1.89,2.14-2.84.34-.46.67-.64,1.12-.1S280.87,79.2,281.18,79.93Z" transform="translate(0 0)"/><path class="cls-31" d="M284.08,71.32A1.29,1.29,0,0,0,285,72c1.09.74.88,1.53.12,2.38-.37.42-.66.9-1,1.33s-.51,1.29-1,1.17a4.23,4.23,0,0,1-1.88-1.38c-.11-.12-.22-.26-.1-.42C282.13,73.85,282.71,72.28,284.08,71.32Z" transform="translate(0 0)"/><path class="cls-30" d="M261.58,102.21c-.59-.62-1.42-1-1.9-1.69.93-.91,1.92-1.78,2.75-2.77.51-.61.81-.69,1.41-.16,1.54,1.35,1.6,1.36.1,2.79C263.22,101.06,262.77,102.12,261.58,102.21Z" transform="translate(0 0)"/><path class="cls-30" d="M300.43,90.39A1.94,1.94,0,0,1,299,87.74c.38-.56.79-1.09,1.16-1.65s.55-1.34,1.12-1.17a4,4,0,0,1,1.83,1.45.42.42,0,0,1,0,.54c-.67,1-1.31,2-2,2.94A3,3,0,0,1,300.43,90.39Z" transform="translate(0 0)"/><path class="cls-30" d="M303.92,80.15c.16-.22.34-.44.49-.68,1.09-1.84,1.08-1.83,2.72-.48a.68.68,0,0,1,.16,1.09c-.36.56-.64,1.17-1,1.75a1.94,1.94,0,0,0-.23.27c-.94,1.6-1.67,1.62-2.83.14-.3-.38-.16-.65,0-1S303.7,80.53,303.92,80.15Z" transform="translate(0 0)"/><path class="cls-32" d="M287.67,70.14c-2.11-1.75-2.11-1.75-.64-4,.09-.13.2-.25.29-.38.88-1.41.83-1.34,2.28-.36.77.51.67.91.27,1.52s-.67,1.17-1,1.76C288.37,69.08,288.25,69.79,287.67,70.14Z" transform="translate(0 0)"/><path class="cls-33" d="M255.87,109.16c2.18.46,3.7,2.07,5.46,3.21,2.36,1.54,4.73,3,7.19,4.41.89.49,1.76,1,1.45,2.24a11.73,11.73,0,0,1-1.92,1.6c-1.9-1.33-3.8-2.65-5.65-4.06-2-1.54-4.25-2.87-6.33-4.38-.7-.5-1.58-.9-1.89-1.84Z" transform="translate(0 0)"/><path class="cls-30" d="M264.94,124c1.11-.82,2.2-1.68,3.35-2.44.58-.38.92.3,1.29.57,1.28,1,1.26,1,0,1.93a6,6,0,0,0-.57.42c-1.06,1-2.13,1.42-3.31.2Z" transform="translate(0 0)"/><path class="cls-30" d="M258.65,127.05c1.21-.58,2.26-1.1,3.33-1.59.4-.18,2.48,1.14,2.45,1.53a.53.53,0,0,1-.27.35c-1,.45-1.94.9-2.92,1.32-.33.15-.6,0-.86-.23C259.86,128,259.33,127.59,258.65,127.05Z" transform="translate(0 0)"/><path class="cls-34" d="M254.17,129.46l-1.27-1.13,3.4-.53,2.09,1.79C256.83,129.85,255.5,130.44,254.17,129.46Z" transform="translate(0 0)"/><path class="cls-35" d="M314.21,58.62c-1.84,3.25-3.34,6.68-5,10-1.06,2.11-2.11,4.23-3.35,6.25-.68-.2-.39-.69-.25-1,.39-.91,0-1.47-.69-2-3.3-2.56-6.65-5.06-9.9-7.7-.67-.56-1.17-.51-1.66.23s-.93,1.59-1.43,2.35-.29,1.21.36,1.69c1.85,1.38,3.65,2.83,5.48,4.25.34.27.88.47.59,1.1,0,0-.06,0-.09,0s-.07,0-.11,0c-2.39-1.84-4.78-3.69-7.19-5.51-.4-.3-.45-.52-.18-1,3.3-5.49,5.86-11.36,8.77-17.06.58-1.14,1.31-2.22,2-3.32.76.16.35.64.22,1-.31.73-.83,1.36-1.12,2.11a1.25,1.25,0,0,0,.42,1.67c3.33,2.52,6.56,5.18,9.9,7.69,1.28,1,1.28,1,2.31-.28C313.49,58.73,313.71,58.31,314.21,58.62Z" transform="translate(0 0)"/><path class="cls-36" d="M298.15,73.73c.38-.54-.21-.57-.42-.74q-3.08-2.44-6.19-4.85c-.38-.29-.53-.52-.25-1,.7-1.11,1.37-2.24,2.08-3.34.37-.58.79-.76,1.45-.24,2.41,1.95,4.86,3.84,7.29,5.74,1.07.83,2.09,1.72,3.22,2.45a1.47,1.47,0,0,1,.55,2.13c-.15.32-.42.63,0,1a20.12,20.12,0,0,1-1.61,3c-.21.4-.41.36-.73.11Q300.84,75.85,298.15,73.73Z" transform="translate(0 0)"/><path class="cls-37" d="M314.21,58.62c-.7.05-.81.7-1.1,1.14-.44.66-.83,1-1.59.34-3.2-2.53-6.39-5.06-9.66-7.5-2.12-1.58-2.36-1.36-.7-4.29.24-.42.81-.83.36-1.44l1-1.82c.11-.54.24-1.06.91-1.15.65.4.15.84,0,1.21-.55,1.37-.49,1.43.66,2.36q4.65,3.72,9.37,7.32c.83.63,1.48,1.05,2.33.14a.41.41,0,0,1,.63-.06.12.12,0,0,1,0,.1s0,.07,0,.11l-.94,1.38Z" transform="translate(0 0)"/><path class="cls-38" d="M303.44,44l-.88,1.06c-.42-.44-.65.35-1,.16-.52-.91-1.64-1.21-2.12-2.14-.17-.48.34-.94,0-1.43a34.82,34.82,0,0,1,4.5-5.77l.73.66c-.78,1-1.66,2-2.48,3-.5.61-.3.94.24,1.33s1,.86,1.59.1c.43-.57.82-1.17,1.3-1.69.34-.36.62-.85,1.24-.79a.84.84,0,0,0,.53.51c.13.76-.48,1.12-.87,1.59s-.72,1-1.07,1.43A9.28,9.28,0,0,1,303.44,44Z" transform="translate(0 0)"/><path class="cls-30" d="M316.15,57.18c.3-.56.65-.76,1.19-.25a7.26,7.26,0,0,0,1.05.77c.48.31.45.67.18,1.12-.57,1-1.15,1.9-1.68,2.87-.36.67-.75.6-1.21.15a5.88,5.88,0,0,0-1.41-1.08Z" transform="translate(0 0)"/><path class="cls-32" d="M299.41,43.07c.76.65,2,.86,2.12,2.14a10.62,10.62,0,0,0-1.9,3c-.34.65-.68.65-1.17.25a3.53,3.53,0,0,0-.65-.52c-.92-.43-.77-1-.33-1.71C298.14,45.16,298.77,44.11,299.41,43.07Z" transform="translate(0 0)"/><path class="cls-30" d="M311.34,72.55c-.39.8-.79,1.62-1.2,2.43-.86,1.73-.85,1.71-2.36.53-.57-.45-.83-.77-.31-1.51a20.72,20.72,0,0,0,1.47-2.85c.2-.41.43-.59.78-.17S311.05,71.73,311.34,72.55Z" transform="translate(0 0)"/><path class="cls-32" d="M294.11,59.14c-.13.26-.25.51-.39.75-.3.55-.63,1.09-.92,1.65-.9,1.72-1.27,1.75-2.6.22a.7.7,0,0,1-.16-.93c.56-1,1.11-2,1.61-3,.29-.59.59-.6.94-.13S293.85,58.38,294.11,59.14Z" transform="translate(0 0)"/><path class="cls-32" d="M314.89,65.34c-.64,1.32-1.24,2.57-1.86,3.81-.16.3-.42.17-.6,0-.54-.41-1.06-.84-1.57-1.27-.31-.26,0-.51.07-.74.46-1,1-1.9,1.41-2.87.3-.69.61-.62,1.12-.22A9.27,9.27,0,0,1,314.89,65.34Z" transform="translate(0 0)"/><path class="cls-32" d="M297.53,52.07c-.61,1.22-1.21,2.43-1.83,3.63-.16.31-.41.1-.6,0-.47-.36-.92-.75-1.41-1.1-.34-.24-.16-.47-.05-.72.44-.94.88-1.87,1.3-2.81.3-.67.6-1,1.28-.32C296.65,51.15,297.29,51.38,297.53,52.07Z" transform="translate(0 0)"/><path class="cls-39" d="M335.79,37.79c-2.05,1.23-4.19,2.33-6.11,3.76-.22.16-.48.27-.6.54A10,10,0,0,0,326.63,44c-.49.5-.84.62-1.49.11-4.05-3.19-8.14-6.33-12.23-9.46-.54-.41-.52-.71,0-1.09l3.75-2.92a4.32,4.32,0,0,1,2.09-1.69c2.23-1.11,4.38-2.39,6.63-3.47a19.54,19.54,0,0,1,3.49-1.15c.4-.11.8-.14,1,.36-.09,1,.95,1.25,1.41,1.89-1.33,3.67-.06,6.66,2.48,9.29C334.38,36.51,335.1,37.14,335.79,37.79Z" transform="translate(0 0)"/><path class="cls-40" d="M324,46.16l-2.42,2.33c-.31,0-.48.25-.69.41a1.55,1.55,0,0,1-2.08,0c-3.47-2.71-6.91-5.48-10.46-8.1-1-.78-.73-1.62-.38-2.53l2.39-2.67c1.64.71,2.85,2,4.24,3,2.94,2.19,5.8,4.48,8.69,6.73A1.81,1.81,0,0,1,324,46.16Z" transform="translate(0 0)"/><path class="cls-10" d="M329.83,24.65a6.27,6.27,0,0,0-4,1,70.74,70.74,0,0,0-9.17,5c0-.32,0-.64,0-1-.06-.56.44-.69.77-.91.63-.41.71-.77.06-1.23-.31-.22-.67-.44-.62-.91-.16-1,.93-1.11,1.23-1.78,5.63-2.93,11.43-4.72,17.79-2.57a2,2,0,0,1,.4.22c.33.74.33.74,2.42,2.13A19,19,0,0,0,329.83,24.65Z" transform="translate(0 0)"/><path class="cls-30" d="M310.62,34.38c-.4.33-.82.63-1.18,1s-.52.43-1,.12c-1.94-1.31-2-1.33-.24-2.84a7.86,7.86,0,0,1,2.19-1.78c.67.58,1.86,1,1.91,1.75C312.35,33.16,311.23,33.79,310.62,34.38Z" transform="translate(0 0)"/><path class="cls-30" d="M329.78,45.94c-1.06,1-2.12,2-3.16,3a.49.49,0,0,1-.81,0,6.3,6.3,0,0,0-.55-.45c-1.22-1-1.22-1-.26-2.11a22.83,22.83,0,0,0,1.9-1.62.83.83,0,0,1,1.39,0C328.75,45.18,329.28,45.54,329.78,45.94Z" transform="translate(0 0)"/><path class="cls-30" d="M330.54,41.86c.76-.48,1.56-.91,2.28-1.45a1.2,1.2,0,0,1,1.83.09A16,16,0,0,0,336,41.62c-1.05.71-2.09,1.44-3.16,2.12s-1.56-.66-2.34-1C329.91,42.48,330.27,42.15,330.54,41.86Z" transform="translate(0 0)"/><path class="cls-30" d="M316.85,26.59c.43.68,1.73.85,1.57,1.66-.11.56-1.15.93-1.78,1.39a1.55,1.55,0,0,0-.23.08c-1.51.91-2,.84-3.24-.39-.16-.17-.43-.4-.16-.58C314.24,27.94,315.25,26.73,316.85,26.59Z" transform="translate(0 0)"/><path class="cls-41" d="M251.05,127.56a7.79,7.79,0,0,0,.84,0c.51-.09.66-.5.21-.7-1.59-.68-2.17-2.36-3.48-3.32-2.55-1.87-4.91-4-7.29-6.06a1.33,1.33,0,0,0-.82-.44c.34-.37.78-.2,1.18-.25,1.19,0,1.86.9,2.58,1.55a112.94,112.94,0,0,0,9.88,8.27c.61.42.57.75-.11,1A4.06,4.06,0,0,1,251.05,127.56Z" transform="translate(0 0)"/><path class="cls-30" d="M254.68,106.94c-1-.71-.7-1.3.12-1.91a10.61,10.61,0,0,0,1.7-1.5c.59-.68,1.06-.61,1.69-.08,1.39,1.18,1.46,1.22,0,2.43-.79.66-1.38,1.69-2.57,1.78A2,2,0,0,0,254.68,106.94Z" transform="translate(0 0)"/><path class="cls-30" d="M249.72,112.16a22.93,22.93,0,0,1-1.87-1.6c-.26-.27.19-.45.39-.59.52-.37,1.06-.7,1.58-1.06,1.57-1.1,2-1,3.32.41.13.15.32.24.2.48A22,22,0,0,1,249.72,112.16Z" transform="translate(0 0)"/><path class="cls-30" d="M241.43,113.58c1.14-.53,2.17-1,3.21-1.49.43-.19,2.48,1,2.48,1.43a.55.55,0,0,1-.25.34,8.52,8.52,0,0,1-1,.47C243.16,115.49,244.05,115.77,241.43,113.58Z" transform="translate(0 0)"/><path class="cls-42" d="M240.91,116.11c-3.12.71-3.12.88-5.31-1.33C237.51,114.71,239.55,113.84,240.91,116.11Z" transform="translate(0 0)"/><path class="cls-43" d="M308,38.26c.05.05.16.14.15.16-.71,1.39.23,2,1.17,2.73,3.27,2.49,6.5,5,9.73,7.57a1.47,1.47,0,0,0,1.66.09c.29-.13.46-.65.9-.32a4.21,4.21,0,0,0-1.37,1.75l-1.92,2.18c-1.3,1-1.48.92-2.85-.13-3.27-2.51-6.51-5.06-9.76-7.6-1.46-1.15-1.45-1.16-.77-2.82L307.1,39Z" transform="translate(0 0)"/><path class="cls-44" d="M305,41.87c-.67,1.76.7,2.44,1.75,3.26,3.15,2.47,6.33,4.89,9.44,7.4.88.71,1.47-.08,2.19-.11l-1.9,2.66c-.42-.36-.57.11-.71.29-.64.8-1.22.61-1.92.05-2.61-2.06-5.25-4.09-7.88-6.11a29.49,29.49,0,0,0-2.7-2.14c-.68-.4-.5-1.05-.25-1.7.18-.48.77-.84.47-1.48A9.3,9.3,0,0,1,305,41.87Z" transform="translate(0 0)"/><path class="cls-30" d="M320.89,50.7c.49-.75,1-.91,1.7-.19a10.2,10.2,0,0,0,1.21.93c-.68,1.46-1.93,2.49-2.8,3.81-.22.33-.47.09-.7-.08-1.85-1.35-1.85-1.34-.44-3.18C320.2,51.55,320.72,51.26,320.89,50.7Z" transform="translate(0 0)"/><path class="cls-30" d="M271.17,119.2a29.47,29.47,0,0,0,2.9-2.44c.27-.19.5-.52.91-.16.59.51,1.39.77,1.79,1.5,0,.05-.1.22-.19.29-1.2.87-2.11,2.13-3.52,2.74C272.44,120.48,271.37,120.26,271.17,119.2Z" transform="translate(0 0)"/><path class="cls-30" d="M306.57,38.48a10.57,10.57,0,0,0-2.25,2.6c-.52.74-1,1.08-1.77.24a7.88,7.88,0,0,0-.84-.66c-.22-.17-.5-.4-.23-.68,1.07-1.15,1.76-2.66,3.2-3.45C305.22,37.26,306.34,37.43,306.57,38.48Z" transform="translate(0 0)"/><path class="cls-42" d="M324.83,25.25c-.76.33-1.42.59-2.07.88-1.64.72-2.06.61-3.36-.68-.45-.45-.21-.56.16-.72.88-.38,1.77-.72,2.63-1.13.52-.26.83,0,1.15.33A5.67,5.67,0,0,1,324.83,25.25Z" transform="translate(0 0)"/><path class="cls-45" d="M325.41,22.6c1.81-.44,3.71-1.28,5,.93C328.31,24.72,326.28,24.35,325.41,22.6Z" transform="translate(0 0)"/><path class="cls-46" d="M335.91,23.64c-1.92,0-3.61-.14-4.8-1.8A4.74,4.74,0,0,1,335.91,23.64Z" transform="translate(0 0)"/></g><g id="middle_V" data-name="middle V"><path class="cls-47" d="M236.45,114.15a8.09,8.09,0,0,1-2.86.18,2.56,2.56,0,0,1-1.21-2.18,2.42,2.42,0,0,0-1.51-2.18,2.78,2.78,0,0,0,1.11,2.69c.83.72.82.73.78,1.42a5.35,5.35,0,0,1-3.25-3.32V105.5a22.65,22.65,0,0,0,1.16-5.14c.72-3.69,1.32-7.4,2-11.11.26,0,.34.16.42.35.23,1.43-.31,2.77-.46,4.16-.38,2-.65,4-1.1,6-.25,2-.77,3.88-1,5.84,0,.27-.15.54.08.78a11.2,11.2,0,0,1,1,.68c.69.66,1.15.56,1.39-.38.25-.51.43-1.18,1.22-.63.32,1.41-.31,2.74-.33,4.12,0,.39-.13.78-.13,1.18,0,1.88.23,2.18,2.06,2.48A1,1,0,0,1,236.45,114.15Z" transform="translate(0 0)"/><path class="cls-48" d="M236.45,114.15a3.92,3.92,0,0,0-.59-.05c-2.44,0-2.47,0-2.51-2.47A46.78,46.78,0,0,1,234,106c-.38-.48-.17-1-.06-1.47a43,43,0,0,0,.93-4.76c.3-2,.81-3.87,1-5.84.3-1.57.54-3.14.78-4.71.21-1.36.59-1.51,1.67-.68,1.35,1,2.67,2.13,4,3.14,2.37,2,4.83,3.79,7.25,5.68a2.06,2.06,0,0,1,1,2.32c-.26,1.43-.4,2.87-.66,4.29a5.52,5.52,0,0,0-.21,1.28,2.53,2.53,0,0,1-.07.38c-.32,1,0,2.18-.89,3a34,34,0,0,1-11,5.3C237.31,114,236.87,114.08,236.45,114.15Z" transform="translate(0 0)"/><path class="cls-49" d="M238.34,36.1l12.84,10c1.94,1.64,2.23,3.93,2.4,6.26a32.24,32.24,0,0,0,.16,4.28,7.81,7.81,0,0,1,.09,1.6c0,1.83,0,3.65,0,5.48,0,.42.05.94-.45,1.14s-.73-.18-1.05-.41c-2.33-1.76-4.59-3.61-6.92-5.38-1.55-1.35-3.24-2.53-4.83-3.85a2,2,0,0,1-.88-1.09c-.14-2.24-.07-4.49-.06-6.74a38.93,38.93,0,0,0-.23-5.5,9.23,9.23,0,0,0-1.3-5.23.85.85,0,0,1-.11-.34C238,36.17,238.1,36,238.34,36.1Z" transform="translate(0 0)"/><path class="cls-50" d="M245.46,58.84l8,6.15V58.38a.63.63,0,0,1,.69-.1l2.89,1.27a3.06,3.06,0,0,1,.17,2.1,30.93,30.93,0,0,0-.17,5c.05,4.37-.44,8.71-.54,13.08-.06,2.84-.43,5.68-.67,8.51a2.24,2.24,0,0,1-.21.54,35.79,35.79,0,0,0-.72,6.69,17.57,17.57,0,0,1-.29,4.19,22.36,22.36,0,0,0-.65,2.77,6.7,6.7,0,0,1-.41,2.12,5,5,0,0,1-.88,1.38,11.72,11.72,0,0,1-2.33,1.69c-1.12.79-1.44,1.13-1.61,1s.14-.83.53-2.57c.18-.81.28-1.45.37-2,.17-1.13.24-2,.28-2.33.08-1,.12-1,.74-5.21s.7-5,.76-5.86c0-.45.06-.84.14-1.48.18-1.61.35-2.13.46-3.33a16.61,16.61,0,0,0,0-2c.27-2,.42-3.69.5-4.89,0-.37.11-1.48.16-2.93.05-1,0-1,.06-1.73a36.75,36.75,0,0,1,.32-4.32c0-.3.07-1,.12-2.43a1.81,1.81,0,0,0-.2-1,1.72,1.72,0,0,0-.56-.6c-.71-.5-1.32-1.14-2.05-1.6-2.09-1.31-2.3-2.18-5.17-4.07-.5-.33-.91-.57-1.14-.71a1,1,0,0,1,.33-.54A1.09,1.09,0,0,1,245.46,58.84Z" transform="translate(0 0)"/><path class="cls-51" d="M250.38,99.47a1.65,1.65,0,0,0-.8-1.78c-2.47-1.89-4.89-3.84-7.33-5.77,0-.17-.12-.28-.19-.41s-.4-.56-.14-.85.64-.12,1,0c.86.44,1.43,1.34,2.46,1.5,1.29.49,2.14,1.59,3.25,2.34a10.31,10.31,0,0,1,1.13.87c.52.47.88.57.89-.34,0-.68.22-1.33.24-2,0-.31,0-.65.42-.78.52.21.21,1,.87,1.15a17.67,17.67,0,0,0,2.21,1.32c.26.18.7.22.59.71a49.33,49.33,0,0,1-.94,7,4.61,4.61,0,0,1-.86-.79,3.67,3.67,0,0,1,.13-2.2,2,2,0,0,0-1.35-2.58c-.52,1,0,2.38-.92,3.28C250.5,100.19,250.19,100.06,250.38,99.47Z" transform="translate(0 0)"/><path class="cls-52" d="M252,93.56c-.38.2-.66.22-.66-.34,0-.31,0-.61,0-.92a4.77,4.77,0,0,1,.48-4.07c.09,0,.09.56.23.13s.36-1,1-1c.85-.1,1.23.78,2,1l.7.49a36.71,36.71,0,0,1-.72,6.69l-.73-.49c-.52-.65-.22-1.37-.14-2.06.17-1.39,0-1.78-1.31-2.4C252.2,91.45,252.74,92.66,252,93.56Z" transform="translate(0 0)"/><path class="cls-11" d="M257.08,59.55V61L257,61l-.23-.76c-.25.33,0,.78-.35,1-.3-1.25-1.51-1.81-2.11-2.84l-.76,0,0-1.62a28.89,28.89,0,0,1-.09-3.72.65.65,0,0,1,.37-.66c.66.14.56.72.51,1.13A3.29,3.29,0,0,0,256,57c.13.21.29,0,.16.05s0,0-.07,0c-.35-.19-.31-.55-.29-.83.08-.91-.24-1.79-.14-2.7a.89.89,0,0,1,1.13.07A31.26,31.26,0,0,1,257.08,59.55Z" transform="translate(0 0)"/><path class="cls-53" d="M250.38,99.47c.05.42.32.57.72.54a3.77,3.77,0,0,1,2.11,1.63c.54,0,.8.24.79.79-.13,1.85-.27,2.23-1.11,2.82,0-1.44-1.31-1.68-2.13-2.6a22.49,22.49,0,0,0-.66,4c-.57-.2-.48-.77-.66-1.19a.49.49,0,0,1,0-.24c.28-.38,0-.85.21-1.24A30.33,30.33,0,0,1,250.38,99.47Z" transform="translate(0 0)"/><path class="cls-54" d="M256.8,53.59l-1.18,0c-.89.1-1.25-.53-1.59-1.17-.57.15-.52.61-.52,1l0,3.28a24.94,24.94,0,0,1-.22-4.23,10.72,10.72,0,0,0-2.08-6.38c2.55,1.71,5.06,3.46,5.58,6.85C256.78,53.2,256.78,53.4,256.8,53.59Z" transform="translate(0 0)"/><path class="cls-55" d="M232.87,89.53l-.23-.28c.66-5,1.41-10.07,1.91-15.14s1-10,1.16-15c0-.35-.08-.72.17-1,.39.28.38.75.54,1.14a32,32,0,0,1-.25,5.36q-.25,3.33-.58,6.65c-.45,4.51-1,9-1.6,13.5a9.31,9.31,0,0,1-.18,1.29c-.27.8-.11,1.65-.35,2.45C233.34,88.87,233.41,89.37,232.87,89.53Z" transform="translate(0 0)"/><path class="cls-56" d="M236.12,59.09c-.28-.29-.11-.68-.24-1,0-3.93.4-7.86.27-11.8s.08-7.7-1.24-11.4c-.17-.48-.48-.91-.61-1.4s.17-.35.4-.16c1.66,1.62,1.73,3.78,2,5.87A45.7,45.7,0,0,0,237,44.8c.13,2.83-.34,5.65-.25,8.49.15,1.68-.26,3.34-.25,5A1,1,0,0,1,236.12,59.09Z" transform="translate(0 0)"/><path class="cls-57" d="M236.43,39a13.62,13.62,0,0,0-1.73-5.7,20.51,20.51,0,0,1,3.64,2.78l-.3.3c-.87,0-1.12-.91-1.78-1.16.38.91.62,2,1.8,2.3,0-.33-.41-.75,0-1.14,1.45,1.46,1.56,3.36,1.67,5.25-.57.31-.63-.25-.86-.51-.45-.73-1.23-1.09-1.82-1.66A3.82,3.82,0,0,1,236.43,39Z" transform="translate(0 0)"/><path class="cls-58" d="M232.76,114.08c.11-.57-.38-.72-.7-1-1.39-1.12-1.66-1.72-1.62-3.93,1,.9,2.26,1.18,2.24,2.81a2.87,2.87,0,0,0,.91,2.35Z" transform="translate(0 0)"/><path class="cls-59" d="M249.44,105.5c.64.16.32.86.66,1.19l.3.25a.43.43,0,0,1,0,.68c-.57.3-1,.84-1.61,1C249.21,107.64,249,106.49,249.44,105.5Z" transform="translate(0 0)"/><path class="cls-60" d="M250.38,107.62l0-.68c.19.08.54-.15.54.18S250.65,107.55,250.38,107.62Z" transform="translate(0 0)"/><path class="cls-61" d="M232.87,89.53l.67-3.42c.26.18.44.47.76.57a3.14,3.14,0,0,1,.79.51c.66.63,1,.5,1.17-.42a1.1,1.1,0,0,1,1.83-.43c2.29,1.71,4.47,3.55,6.68,5.36a.87.87,0,0,1,.41.69c-.78.21-1.07-.56-1.6-.85s-.87-.74-1.44-.85c-.41.5.6.77.11,1.23l-5.06-3.82-1,5.69c-.44.2-.32,1-1,.93-.4-.79.06-1.54.1-2.32a2.32,2.32,0,0,0,0-1.17c-.25-.51-.62-1.07-1.19-1s-.34.71-.45,1.1a13.11,13.11,0,0,0-.24,2.24.87.87,0,0,1-1,.23Z" transform="translate(0 0)"/><path class="cls-62" d="M235.19,99.76a33.75,33.75,0,0,1-1,5.08A11.34,11.34,0,0,0,234,106c-.8-.18-.56.7-.95,1-.45-.5-.17-1.05-.09-1.59a1.93,1.93,0,0,0-1.18-2c-.54-.18-.47.28-.52.55-.19.92-.09,1.92-.72,2.72-.74,0-.53-.47-.45-.9.37-2,.73-4,1.1-6,.27-.21.53-.08.79,0a7.66,7.66,0,0,1,1.11.86c.44.34.77.28,1-.21C234.45,100.14,234.68,99.73,235.19,99.76Z" transform="translate(0 0)"/><path class="cls-63" d="M231.84,100l-.64-.28c.46-2,.57-4,1.17-6a1.24,1.24,0,0,1,.88-.21,2.94,2.94,0,0,1,1.94,1.15c.41-.22.28-1,1-.93a48.26,48.26,0,0,1-1,6,2.28,2.28,0,0,1-.93.72c-.38-.38-.19-.82-.13-1.24.22-1.62.18-1.69-1.31-2.58C232.21,97.7,232.54,99,231.84,100Z" transform="translate(0 0)"/><path class="cls-34" d="M230.55,106.65a27.94,27.94,0,0,1,.75-4.07,11.25,11.25,0,0,0,1.35,1.06,1.37,1.37,0,0,1,.63,1.79,12.32,12.32,0,0,0-.22,1.5,2,2,0,0,0-.16.57c0,.85-.34.72-.83.29S231.06,107,230.55,106.65Z" transform="translate(0 0)"/><path class="cls-59" d="M249.67,104c0,.43.19.88-.21,1.24A2,2,0,0,1,249.67,104Z" transform="translate(0 0)"/><path class="cls-64" d="M236.2,58.38l.25-5a14.69,14.69,0,0,0,.07-2.1c0-.25-.14-.63.18-.73s.6.2.75.53a13.47,13.47,0,0,1-.09,2c-.19,1.61-.14,1.7,1.34,2.47.47-.94,0-2.06.51-3,.42-.29.59-.17.64.34s-.24,1.15.17,1.66l5.44,4.3c.06,1,1,1.15,1.56,1.62,1.81,1.52,3.73,2.91,5.59,4.35a5.63,5.63,0,0,1,.55.63c-1.36-.3-2-1.23-2.87-1.84-1.81-1.32-3.55-2.74-5.32-4.12-.24-.19-.45-.55-.75-.09-.91,0-1.42-.8-2.09-1.25a14.32,14.32,0,0,0-1.35-1,2.06,2.06,0,0,1-.53-.47,6.34,6.34,0,0,1-.11,1,5.33,5.33,0,0,1-.31,1,.89.89,0,0,1-.76.39c-1-.15-1.53-1-2.27-1.47.16,0-.18,0-.08-.09s-.12-.11-.12-.08C236.64,57.82,236.77,58.24,236.2,58.38Z" transform="translate(0 0)"/><path class="cls-65" d="M240,54.54c-.56-.4-.24-1-.28-1.49s-.15-.57-.55-.37a2,2,0,0,1-1.85-1.46.82.82,0,0,0-.6-.55c-.32.87.16,1.84-.29,2.68l.18-8.6c.3-.1.49.06.64.3a4.36,4.36,0,0,1,.16,1.65c0,1.77.07,1.87,1.57,2.91a5.87,5.87,0,0,1,.18-2.94c.84-.4.54.43.75.71Z" transform="translate(0 0)"/><path class="cls-66" d="M239.93,47.38c-.28-.19-.17-.77-.71-.7A3,3,0,0,1,237.15,45l-.52-.27a45.73,45.73,0,0,1-.2-5.73c.25,0,.5-.06.69.17a10.37,10.37,0,0,1,.06,1.67,2.52,2.52,0,0,0,1.54,2.53c.3-.83-.41-1.77.33-2.47.27.2.15.75.66.73A37.78,37.78,0,0,1,239.93,47.38Z" transform="translate(0 0)"/><path class="cls-67" d="M239.94,57.61V56.33c.48,0,.6.51,1,.65a20.28,20.28,0,0,0-.11,3.31c.19,2.34,1.61,4.05,3,5.7,1.5,1.83,3,3.69,4.57,5.43.84.91,1.8,1.66,2.66,2.53.49.49.72.22.9-.31s.17-1.11.84-1.44a3.56,3.56,0,0,1,.09,2,84.7,84.7,0,0,1-.72,9.55c-.35-.24-.19-.59-.17-.91a5.92,5.92,0,0,1-.4,1.9c-.4.68-.88.9-1.55.43a41.62,41.62,0,0,1-7.15-6,3.62,3.62,0,0,0-.73-.78c-2.8-1.76-3-4.54-2.85-7.44a3.4,3.4,0,0,0-.26-1.82c-.17-2.12.22-4.22.23-6.33A14.38,14.38,0,0,0,239.5,61C239.68,59.84,239.69,58.71,239.94,57.61Z" transform="translate(0 0)"/><path class="cls-68" d="M239.25,69.39c.61.32.37.8.33,1.33-.17,2.85-.06,5.47,2.66,7.48,1.6,1.18,2.92,2.84,4.49,4.16,1.13.94,2.36,1.73,3.47,2.67.4.35.7.31,1-.23.45-.78.34-1.7.8-2.61,0,.62.07,1.11.09,1.6,0,.67,0,1.34,0,2-.24.56.06,1.19-.2,1.75l0,.67a25.26,25.26,0,0,0-.48,4.07c-.21,1.35-.41,2.71-.64,4.18-2-1.26-3.55-3-5.51-4.09l-7.81-6.3c-.33-.38-.18-.84-.14-1.26.33-3.08.8-6.15,1-9.25a5.64,5.64,0,0,1,.23-1,4.67,4.67,0,0,0,.19-1.75,4,4,0,0,1,.1-.77A10.68,10.68,0,0,0,239,69.9.84.84,0,0,1,239.25,69.39Z" transform="translate(0 0)"/><path class="cls-69" d="M252.82,74.24v-2c-.62.73-.54,1.41-.78,2s-.44.77-1,.26a66.85,66.85,0,0,1-6.51-7.15,22.31,22.31,0,0,1-3.5-5A6,6,0,0,1,240.9,57a39,39,0,0,1,3.32,2.41c2.75,2.17,5.5,4.36,8.28,6.51a1.63,1.63,0,0,1,.76,1.59C253.09,69.74,253.15,72,252.82,74.24Z" transform="translate(0 0)"/><path class="cls-30" d="M255,88.29c-1,.36-1.25-.76-2-1-.58-1.3,0-2.57,0-3.88,2.2,1.15,2.22,1.21,1.91,3.53A11.45,11.45,0,0,0,255,88.29Z" transform="translate(0 0)"/><path class="cls-30" d="M253.73,72.62c.11-.5-.28-1.33.21-1.6s1,.55,1.54.82a1,1,0,0,1,.52,1.4c-.1.29-.05.63-.12.93-.13.52.36,1.23-.33,1.54-.34.16-1.78-1.36-1.81-1.83S253.73,73.09,253.73,72.62Z" transform="translate(0 0)"/><path class="cls-30" d="M255.27,82.18c-.5-.38-.89-.7-1.31-1a1.56,1.56,0,0,1-.66-1.76c.06-.26.11-.54.18-.8.15-.49-.19-1.52.28-1.41a2.32,2.32,0,0,1,1.84,1.63A8,8,0,0,1,255.27,82.18Z" transform="translate(0 0)"/><path class="cls-30" d="M256.15,69.52c-2-.93-2.81-2.67-2.14-4.54.08-.22.17-.31.42-.25a2.86,2.86,0,0,1,1.73,2.64C256.1,68,256.15,68.72,256.15,69.52Z" transform="translate(0 0)"/><path class="cls-30" d="M254.26,58.41l1.22.92a1.91,1.91,0,0,1,.89,1.92,1.94,1.94,0,0,1,0,.24c-.17.59.38,1.37-.32,1.8-.32.19-1.82-1.62-1.82-2.16C254.22,60.22,254.24,59.32,254.26,58.41Z" transform="translate(0 0)"/><path class="cls-52" d="M251.85,87.56a4.32,4.32,0,0,1,.2-1.75C252,86.4,252.28,87,251.85,87.56Z" transform="translate(0 0)"/><path class="cls-42" d="M253.21,101.64,251.1,100c.16-1.24.32-2.48.5-3.76,1.68.76,2.58,1.78,1.92,3.64A10,10,0,0,0,253.21,101.64Z" transform="translate(0 0)"/><path class="cls-30" d="M252,93.56c.1-1.07.21-2.13.28-3.2,0-.6.17-.65.7-.32a2.7,2.7,0,0,1,1.31,3.4,6.51,6.51,0,0,0-.11,1.54C253.29,94.81,252.76,94,252,93.56Z" transform="translate(0 0)"/><path class="cls-42" d="M254,52.44a7,7,0,0,0,1.59,1.17c1,1.13.19,2.49.66,3.75C253.64,56.46,253.87,54.43,254,52.44Z" transform="translate(0 0)"/><path class="cls-70" d="M255.61,51.65a4.6,4.6,0,0,1-2.67-3.51C254.58,49,255,49.52,255.61,51.65Z" transform="translate(0 0)"/><path class="cls-71" d="M238.8,74.41q-.7,5.84-1.43,11.68l-.94.77a.57.57,0,0,1-.25-.63,2.3,2.3,0,0,0-1.35-2.88,26.28,26.28,0,0,1-.62,3.52c-.54,0-.68-.29-.67-.76.42-3.58.88-7.17,1.25-10.76.42-4,.8-8.06,1.11-12.1a22.24,22.24,0,0,0,.22-4.16l.08-.71c.39-.42.08-1,.27-1.44.29,0,.28.32.4.49a2.27,2.27,0,0,1,.18,1.82c-.2,1.41-.05,1.7,1.28,2.45.39-.9.12-2,.66-2.82l.74-.26a1.47,1.47,0,0,1,.06,1c-.19,1-.09,2-.3,3.06.18,2.24-.32,4.46-.24,6.7l0,.43c-.28.71.08,1.49-.21,2.2l0,.65C238.75,73.23,239,73.84,238.8,74.41Z" transform="translate(0 0)"/><path class="cls-34" d="M239.05,40.92v3c-2.15-1-2.72-2.41-1.93-4.74C237.71,39.83,238.57,40.16,239.05,40.92Z" transform="translate(0 0)"/><path class="cls-58" d="M238,36.4c0,.64.55,1.13.44,1.81a4.63,4.63,0,0,1-2.71-3.62A10.63,10.63,0,0,1,238,36.4Z" transform="translate(0 0)"/><path class="cls-30" d="M235.19,94.72c-.82-.08-1.26-.82-1.94-1.15-.44-1.33.19-2.56.32-3.83,0-.17.16-.23.35-.19a2.78,2.78,0,0,1,1.73,2.5C235.5,92.94,235.34,93.83,235.19,94.72Z" transform="translate(0 0)"/><path class="cls-30" d="M234.21,86.87c-.28-1.34.3-2.59.33-3.89,2.06.64,2.35,2.09,1.89,3.88-.08.41.12,1-.25,1.19s-.78-.32-1.14-.57Z" transform="translate(0 0)"/><path class="cls-42" d="M231.84,100c0-1.35.46-2.62.63-4.17l1.95,1.55c.29.24.24.52.17.86-.15.73-.22,1.48-.33,2.22l-.37,1.08Z" transform="translate(0 0)"/><path class="cls-30" d="M239,58.88c.16,1-.3,2-.22,3.06,0,.25-.05.48-.41.38a2.7,2.7,0,0,1-1.69-2.77,10.09,10.09,0,0,0,.2-2.12C237.72,57.7,238.18,58.55,239,58.88Z" transform="translate(0 0)"/><path class="cls-34" d="M237.34,51.22l1.85,1.46a9.75,9.75,0,0,1-.24,3.4C236.67,55,236.32,53.89,237.34,51.22Z" transform="translate(0 0)"/><path class="cls-42" d="M237.15,45l2.07,1.66v3.39c-1.57-.7-2.46-1.71-2.13-3.5A11.48,11.48,0,0,0,237.15,45Z" transform="translate(0 0)"/><path class="cls-30" d="M237.11,81.7c-2.28-1.43-2.61-2.38-1.9-4.93.15-.56.36-.3.66-.14a2.76,2.76,0,0,1,1.43,3.53A5.11,5.11,0,0,0,237.11,81.7Z" transform="translate(0 0)"/><path class="cls-30" d="M236,70.07a3.45,3.45,0,0,1,1.79,4.77.29.29,0,0,1-.37.18,2.82,2.82,0,0,1-1.75-2.28C235.76,71.85,235.89,71,236,70.07Z" transform="translate(0 0)"/><path class="cls-30" d="M238.19,68.79c-.41-.28-.74-.49-1-.73-.68-.53-1.29-1.09-.8-2.08.07-.13,0-.32,0-.47.1-.59-.31-1.31.29-1.75.27-.2,1.87,1.65,1.86,2.16A6.1,6.1,0,0,1,238.19,68.79Z" transform="translate(0 0)"/></g><g id="first_V" data-name="first V"><path class="cls-32" d="M227.58,31.06a23.24,23.24,0,0,0-5,1.23,26.33,26.33,0,0,0-7,4.25,35.33,35.33,0,0,0-6.28,6.63,36.4,36.4,0,0,0-3.14,5.15,49.78,49.78,0,0,0-2,4.85c-.69,1.86-.47,1.52-1,2.81a11.32,11.32,0,0,0-1.08,3.51,7.68,7.68,0,0,0,0,1.19.78.78,0,0,0,.68.1.75.75,0,0,0,.35-.4,2.79,2.79,0,0,0,.18-.81c0-.14,0-.26.14-.34a.45.45,0,0,1,.28-.07.92.92,0,0,1,.46.15,3.59,3.59,0,0,1,1,1c.21.34.55.88.38,1.22a2.67,2.67,0,0,0-.16.37,1.75,1.75,0,0,0-.08.33,1.4,1.4,0,0,0,.25.86,2.32,2.32,0,0,0,.51.49c.43.35.77.59.78.6.41.28.79.6,1.19.9l1.65,1.26,2.53,1.93c1.83,1.4,2.75,2.1,3,2.28,1.28,1.06,2.72,1.92,3.93,3,.15.14.67.63,1,.48a.59.59,0,0,0,.25-.34c.16-.33.05-.51.21-.87.06-.16.11-.28.23-.32s.29,0,.61.28c.48.36.79.63.88.7.55.48.65.59.67.77s0,.21-.15.49a3.79,3.79,0,0,0-.25,1.06,2,2,0,0,0,.32,1.19c.34-1.38.86-3.31,1.61-5.59A51.62,51.62,0,0,1,227.39,64a29.82,29.82,0,0,1,3.52-5.64c.19-.25.35-.45.47-.58a30.86,30.86,0,0,1,4.15-4.2l.41-.33.25-.23c0-.27,0-.54,0-.83s0-.59,0-.87c.15-7.51.12-10.55,0-11.14,0,0-.06-.27-.1-.59a10.69,10.69,0,0,1-.1-1.46,8.7,8.7,0,0,0-1.68-4.93,6.78,6.78,0,0,0-1.74-1.43,5.56,5.56,0,0,0-1.38-.51,7.55,7.55,0,0,0-1.25-.27A8.5,8.5,0,0,0,227.58,31.06Z" transform="translate(0 0)"/><path class="cls-72" d="M224.52,71.42c-.52,1.8-1,3.59-1.61,5.59a2.32,2.32,0,0,1-.22-1.9c.1-.39.57-.78.1-1.19A10.16,10.16,0,0,0,221,72.54c-.34-.18-.47.37-.5.64-.18,1.22-.56,1-1.38.39-4.2-3.3-8.45-6.53-12.71-9.76-.81-.62-1.48-1.14-.85-2.31.33-.59-1.11-2.38-1.81-2.34-.49,0-.39.5-.47.82-.15.64-.41,1.06-1.16.7v-.24c.11-.3.23-.62.33-.95a19.13,19.13,0,0,0,.75-3.51c.51-1.61,1.15-3.34,1.93-5.15a56.2,56.2,0,0,1,3.37-6.61L218,34.73c6.45-3.48,13-4.71,15.93-2,2,1.85,2.09,6.13,2.3,14.67.06,2.3,0,4.23,0,5.62Z" transform="translate(0 0)"/><path class="cls-73" d="M203.77,56.12c-.38,1.14-.78,2.28-1.15,3.43-.11.33-.14.69-.48.89v-.95c.63-1.88,1.25-3.77,1.89-5.65a43.27,43.27,0,0,1,3.63-8.17.18.18,0,0,1,.28,0c0,1.26-.91,2.14-1.29,3.24-.08.15-.15.3-.22.46s-.08.21-.13.32c-.66,1.76-1.35,3.5-1.92,5.29C204.25,55.42,204.18,55.87,203.77,56.12Z" transform="translate(0 0)"/><path class="cls-74" d="M235.94,53.29a47.4,47.4,0,0,0-3.46,3.34l-1,1c-.28.14-.43,0-.56-.24a7.42,7.42,0,0,1,2-2.71c.36-.39,1-.73.24-1.33-.56-.46-1-1.15-1.87-.32a28.17,28.17,0,0,1-2.6,2.75c-.41,0-.86.23-1.16-.27a1.73,1.73,0,0,1,.6-1.23,1.34,1.34,0,0,1,.2-.21l.11-.1.21-.2.1-.1.21-.2.09-.11.2-.21.1-.11a6.72,6.72,0,0,1,.94-1l.22-.19.11-.1.21-.2a.94.94,0,0,0,.1-.1l.4-.39a1.8,1.8,0,0,1,.19-.2.94.94,0,0,1,.1-.1l.21-.19a3.76,3.76,0,0,1,.46-.32l.23-.17a.94.94,0,0,1,.1-.1c.07-.08.15-.14.22-.22l.11-.1a14.28,14.28,0,0,1,1.48-1.11c.33-.23.67-.57,1.13-.23a1,1,0,0,1-.09,1.19c-.29.39-.39.77,0,1.13,0-.23-.05-.52.07-.78s.24-.68.62-.19A17,17,0,0,1,235.94,53.29Z" transform="translate(0 0)"/><path class="cls-75" d="M230.93,57.33l.51.26-.06.23a.7.7,0,0,1-.2.22,52.68,52.68,0,0,0-3.79,6,.61.61,0,0,1-.57-.31c-.08-1.07.64-1.83,1.09-2.69a1.45,1.45,0,0,0-1-2.12c-.43-.05-.51.29-.67.55-.61,1-1.07,2.12-1.67,3.15-.34-.25-.89,0-1.14-.49-.09-.76.42-1.3.66-1.94a32.78,32.78,0,0,1,2.38-3.88c.32-.38.5-.93,1.12-1,.27.33.73,0,1,.3A4.41,4.41,0,0,1,230.93,57.33Z" transform="translate(0 0)"/><path class="cls-61" d="M223.54,62.07c.2.39.78.09,1,.53.77,0,1.12.68,1.66,1a1.94,1.94,0,0,0,.27.23.45.45,0,0,0,.2,0l.18-.08h.1a.51.51,0,0,1,.49.25l-2.87,7.38a.54.54,0,0,0-.49-.25c-.45-1,.34-1.87.53-2.81.08-.38.38-.74.21-1.13a1.72,1.72,0,0,0-1.3-1.1c-.54-.07-.46.63-.66,1-.41.71-.18,1.75-1.14,2.16-.34.17-.68.32-.74-.27a.93.93,0,0,1-.07-1c.54-1.74,1.19-3.45,1.89-5.13C222.9,62.51,223.05,62.1,223.54,62.07Z" transform="translate(0 0)"/><path class="cls-76" d="M227.58,31.06H230a6.17,6.17,0,0,1,4.3,2.17.43.43,0,0,1-.34.33c-1-.39-1.73-1.31-2.83-1.55a2.47,2.47,0,0,0-.81-.15,4.31,4.31,0,0,1-.71-.09c-1.2-.38-2.39.22-3.59.09-.25-.08-.54-.11-.54-.47Z" transform="translate(0 0)"/><path class="cls-9" d="M236.17,39.93a71.91,71.91,0,0,1,.05,11.74,36.16,36.16,0,0,1-.38-5.88,23.22,23.22,0,0,0-.07-3.44,3.25,3.25,0,0,1-.11-.42,3.64,3.64,0,0,1,.15-1.85A.36.36,0,0,1,236.17,39.93Z" transform="translate(0 0)"/><path class="cls-77" d="M235.93,42.06c.37.4.22.9.23,1.36,0,2.75,0,5.5.06,8.25l0,1.39a1.1,1.1,0,0,0-.25.23h0c-.31-1.27.19-2.55,0-3.82a.58.58,0,0,1-.17-.34,4.55,4.55,0,0,0-.14-1.16c0-1.72,0-3.44,0-5.16C235.6,42.54,235.47,42.15,235.93,42.06Z" transform="translate(0 0)"/><path class="cls-78" d="M236.17,39.93l-.29.07-.14-.09a1.1,1.1,0,0,1-.2-.28c0-.11-.07-.22-.1-.33a19.62,19.62,0,0,0-1.09-4.84c-.13-.3-.41-.55-.34-.92l.3-.3A7.79,7.79,0,0,1,236,38.17c.15.42,0,.88.16,1.29Z" transform="translate(0 0)"/><path class="cls-9" d="M236.15,39.46c-.35-.39-.19-.85-.16-1.29C236.29,38.57,236.15,39,236.15,39.46Z" transform="translate(0 0)"/><path class="cls-26" d="M225.49,31.4l.48.2c0,.5-.45.51-.77.58a26.52,26.52,0,0,0-8.26,4c-.33.2-.6.53-1,.53a.37.37,0,0,1-.25-.19A22.5,22.5,0,0,1,225.49,31.4Z" transform="translate(0 0)"/><path class="cls-79" d="M208,45.68h-.33a27,27,0,0,1,6.56-8l.12.12a1,1,0,0,1-.42.8c-1.07,1-2,2.14-3,3.22-.1.12-.2.25-.29.38a4.87,4.87,0,0,1-.37.52,21.91,21.91,0,0,0-1.41,2.05C208.68,45.17,208.49,45.6,208,45.68Z" transform="translate(0 0)"/><path class="cls-79" d="M214.22,37.72a2.86,2.86,0,0,1,1.05-.87c.1-.1.19-.08.26,0-.15.63-.45,1.08-1.2,1Z" transform="translate(0 0)"/><path class="cls-26" d="M215.48,36.84h-.21l.39-.31.08.09C215.74,36.8,215.67,36.89,215.48,36.84Z" transform="translate(0 0)"/><path class="cls-48" d="M223.54,62.07A35.12,35.12,0,0,0,220.93,69a20.34,20.34,0,0,0-1.06,3.14c-.17.54-.32.61-.79.25Q213,67.62,206.91,62.9a.9.9,0,0,1-.35-1.19c.38-1.13.68-2.28,1-3.42-.25-.44,0-.85.11-1.24.69-1.88,1.35-3.77,2.18-5.59a3,3,0,0,1,.16-.31l.24-.45c.28-.41.33-1,1-1.09.21,0,.4.2.38.4-.07,1.22.78,1.76,1.58,2.43,2.95,2.47,6.13,4.63,9.08,7.08a1.23,1.23,0,0,0,1.51.28c.43-.23.73-.14.52.45Z" transform="translate(0 0)"/><path class="cls-80" d="M210.18,51.37l-2.61,6.92c-.37,0-.44-.37-.7-.5-.49-1.1.23-2,.57-2.89a1.48,1.48,0,0,0-.67-2c-.57-.38-.81-.21-1,.37a15.83,15.83,0,0,1-1.15,3.08c-.31,0-.61.08-.82-.23a36,36,0,0,1,2.43-6.62c.33-.21.51-.68,1-.57a9.33,9.33,0,0,1,1.88,1.37.7.7,0,0,0,.47.26.64.64,0,0,1,.26.13C210,50.88,210,51.18,210.18,51.37Z" transform="translate(0 0)"/><path class="cls-30" d="M204.59,56.35a18.58,18.58,0,0,1,1.16-3.94.51.51,0,0,1,.33-.28c.77-.08,2,1.64,1.79,2.4a13.23,13.23,0,0,0-1,3.26h0c-.14.18-.29.17-.45,0Z" transform="translate(0 0)"/><path class="cls-30" d="M221.67,69.27a22.36,22.36,0,0,0,1.17-3.21c.2-.55.39-.68.91-.3,1.63,1.16,1.63,1.14,1,3a10.28,10.28,0,0,0-.71,2.37h0a.31.31,0,0,1-.47,0C223,70.44,222,70.26,221.67,69.27Z" transform="translate(0 0)"/><path class="cls-81" d="M207.14,49c-.38,0-.43.7-.94.51l.07-.26a.68.68,0,0,1,.15-.26c.52-1.1,1-2.2,1.57-3.3a23.9,23.9,0,0,1,2.23-3.15c.45-.16.76-.82,1.37-.39a17.2,17.2,0,0,1,2.29,1.79c.46.75-.26,1.26-.38,1.89,0,0,0,.1,0,.15l0,.15a1.48,1.48,0,0,1-.1.27,1.19,1.19,0,0,1-.13.25,1.88,1.88,0,0,1-.16.23A.76.76,0,0,0,213,47l-.15.24-.15.25-.25.37a5.79,5.79,0,0,1-1.28,1.85l-.74,1.22c0,.09-.1.19-.16.28a.14.14,0,0,1-.07.18c-.49,0-.35-.56-.66-.71-.33-.46,0-.83.18-1.21.31-.69.76-1.3,1.12-2a1.43,1.43,0,0,0-1-1.94c-.41-.06-.56.24-.73.5-.42.67-.76,1.38-1.16,2.07C207.69,48.45,207.58,48.86,207.14,49Z" transform="translate(0 0)"/><path class="cls-82" d="M235.43,48.25c-1,.35-1.65,1.24-2.6,1.66a2.12,2.12,0,0,1-2.88-.22c-3.11-2.51-6.31-4.89-9.43-7.39-.18-.15-.38-.29-.55-.45-1-1-1.06-1.24-.1-2.32a2.89,2.89,0,0,0,.42-.57,1.29,1.29,0,0,1,.65-.61l.36-.2a4.08,4.08,0,0,1,.44-.28l.33-.18.21-.12.2-.12.1-.08.19-.14.22-.12.34-.18.25-.12a1,1,0,0,1,.42-.11.51.51,0,0,1,.28.15c.09.56-.41.72-.71,1-.56.51-.65.95,0,1.45q5.11,3.9,10.16,7.86c.53.42,1.25.22,1.76.64a.48.48,0,0,1,.05.33Z" transform="translate(0 0)"/><path class="cls-83" d="M227.57,55.36l-.92,1a1.78,1.78,0,0,1-2.09-.25c-3.41-2.69-6.88-5.3-10.28-8-.66-.52-1.14-1.1-.78-2a1.24,1.24,0,0,0,0-.16.81.81,0,0,1-.05-.31c.08-.32.37-.49.53-.75l.16-.26.09-.13a2.33,2.33,0,0,1,.17-.26c.31-.39.58-.82,1.15-.85a.5.5,0,0,1,.28.16,2.33,2.33,0,0,0,1,1.77c3.38,2.59,6.75,5.2,10.08,7.85a1,1,0,0,0,1.49.08c.25-.21.6-.6.88,0l0,0a.45.45,0,0,1-.2.21l0,0a.77.77,0,0,1-.22.22l0,0a1.21,1.21,0,0,1-.21.24h0a2.85,2.85,0,0,0-.23.26Z" transform="translate(0 0)"/><path class="cls-73" d="M220.48,39c.26.39-.16.47-.31.64-1.06,1.15-1.1,1.18.13,2.15,3.35,2.66,6.76,5.24,10.09,7.94.86.7,1.62.26,2.44.2l0,0a.34.34,0,0,1-.2.19l0,0a.24.24,0,0,1-.17.18l-.42.34a.57.57,0,0,0-.3.23h0a1.42,1.42,0,0,0-.25.24l-.5.43c-1.59.92-1.6.94-3.09-.21-3.16-2.44-6.36-4.83-9.46-7.34-.68-.56-1.4-1.08-1.34-2.1,0-.63.49-.94.86-1.33a3.43,3.43,0,0,1,.49-.36l.24-.16.11-.09.21-.2.1-.11.23-.2C219.66,39.28,219.94,38.81,220.48,39Z" transform="translate(0 0)"/><path class="cls-84" d="M217.11,41.82c.33,1.6,1.76,2.25,2.84,3.12,2.78,2.26,5.71,4.33,8.52,6.56.74.59,1.27.67,1.94.07.17-.15.35-.19.51,0l0,0a.41.41,0,0,1-.21.2l0,0a.36.36,0,0,1-.2.2l-1.21,1.21c-.23-.27-.46-.12-.59.08-.7,1-1.38.54-2.07,0-3.41-2.68-6.8-5.38-10.25-8a1.4,1.4,0,0,1-.63-1.79l-.1-.09v-.13a.65.65,0,0,1,.13-.23l.08-.1.18-.18.09-.08a1.29,1.29,0,0,1,.17-.16l.08-.08.17-.16.08-.08a1.21,1.21,0,0,1,.16-.16l.08-.07a.62.62,0,0,1,.18-.14Z" transform="translate(0 0)"/><path class="cls-30" d="M230.93,57.33c-.94-.33-1.53-1.16-2.35-1.67a30.41,30.41,0,0,1,2.65-3c.57-.59,1-.58,1.56,0,1.29,1.23,1.3,1.18.07,2.47C232.18,55.8,231.57,56.58,230.93,57.33Z" transform="translate(0 0)"/><path class="cls-34" d="M235.9,49.24v.23c-.42.5-.07,1.13-.28,1.75-.56-.63-1.52-1.09-.34-2,.31-.23.18-.66.15-1h0C236.14,48.32,235.63,49,235.9,49.24Z" transform="translate(0 0)"/><path class="cls-37" d="M213.6,45.94c-.17,1.12.52,1.75,1.3,2.35,3.21,2.49,6.43,5,9.61,7.5a3.56,3.56,0,0,0,2.14.58l-2.35,3.88c-.06-.15-.11-.52-.32-.29-.84.94-1.42.16-2-.28-3.3-2.55-6.56-5.14-9.87-7.66a1.42,1.42,0,0,1-.71-1.36c0-.34.1-.72-.26-1a6.27,6.27,0,0,1,1.23-2.12.64.64,0,0,0,.2-.31.19.19,0,0,1,.09-.17,1.08,1.08,0,0,1,.18-.24h0a.59.59,0,0,0,.21-.3.18.18,0,0,1,.1-.17.36.36,0,0,1,.18-.22v0A.24.24,0,0,1,213.6,45.94Z" transform="translate(0 0)"/><path class="cls-30" d="M226.18,64l-1.69-1.42a13.84,13.84,0,0,1,1.86-3.92c.21-.4.45-.36.75-.08a5.37,5.37,0,0,0,.66.49c.92.59,1.18,1.2.39,2.17a6.27,6.27,0,0,0-1.25,2.53h0a.79.79,0,0,0-.21.24l0,0A.39.39,0,0,1,226.18,64Z" transform="translate(0 0)"/><path class="cls-24" d="M218.57,40.34l-.4.35c-.36-.39-.38-.41,0-.78s1-.82,1.09-1.5a10.71,10.71,0,0,1,2.26-1.7c.35-.26,1.18-.23.86-1a1.8,1.8,0,0,0-2.05-.76c-.69.37-1.35.82-2,1.23a2.22,2.22,0,0,1-1.06.5c-.28-.08-.58-.15-.52-.55A25.37,25.37,0,0,1,226,31.6c1.27,0,2.54-.49,3.83,0-.59.38-1.23,0-1.8.16a2.75,2.75,0,0,1,2.45.81,3.57,3.57,0,0,0,2,.93,2.2,2.2,0,0,1,1.62.87c-.32.57-.88.38-1.36.41a16.27,16.27,0,0,0-2.81.16c1.59,1.32,3.17,2.41,4.65,3.62a3.12,3.12,0,0,1,1.12,1.19h0a.41.41,0,0,1,.19.29h0l0,1.79c-.49.41-.78,0-1.08-.3-2.13-1.76-4.4-3.35-6.51-5.13a1.83,1.83,0,0,0-2.26-.33,4.72,4.72,0,0,1-2.09.76.21.21,0,0,0-.17.08,1.75,1.75,0,0,1-.29.18.22.22,0,0,0-.19.08,1.45,1.45,0,0,0-.26.17l-.22.09a.37.37,0,0,0-.21.16h0a.73.73,0,0,1-.33.19.18.18,0,0,0-.16.09,1.51,1.51,0,0,0-.26.18l-.45.28-.27.19-.67.49-1.13.74a.54.54,0,0,0-.31.22h0l-.26.2,0,0A.35.35,0,0,1,218.57,40.34Z" transform="translate(0 0)"/><path class="cls-85" d="M224,36.79a.73.73,0,0,1,.08-.09C227,35,227,35,229.64,37.05l5.57,4.36c.21.17.38.41.7.38l0,.27c0,2,0,4,0,6-.17.1-.33.13-.46,0-2.71-.5-4.31-2.75-6.41-4.18s-3.75-2.89-5.62-4.32c-1-.79-1-1-.1-1.9C223.56,37.39,224.31,37.47,224,36.79Z" transform="translate(0 0)"/><path class="cls-82" d="M234.05,34.41c.24.14.45.21.46-.2a13.4,13.4,0,0,1,1.18,5.5l-6.42-4.91C230.94,34.15,232.51,34.45,234.05,34.41Z" transform="translate(0 0)"/><path class="cls-3" d="M216.67,36.14l.48.47c.88.44,1.87.75,2.14,1.87.26.56-.12.8-.47,1.14s-.95.41-.65,1.07l-1.06,1.13h0a.85.85,0,0,1-.25.25v0a.6.6,0,0,1-.25.25h0a.55.55,0,0,1-.25.25h0a.55.55,0,0,1-.25.25l0,0a.57.57,0,0,1-.25.26v0a.63.63,0,0,1-.25.26h0a.51.51,0,0,1-.23.25l-1,1a2.2,2.2,0,0,1-.2.23h0a1.44,1.44,0,0,0-.22.27c-.06.32-.33.48-.53.69l-.09.2-.09,0c-.42-.34-.06-.55.14-.75a1.43,1.43,0,0,0,.32-1.2c-.15-.56.23-.89.54-1.23s.9-.88,1.32-1.36,1.09-.7.37-1.42-1.27-.88-2.07-.12-1.63,1.7-2.52,2.49c-.51-.52-.73.59-1.22.22l.31-.45a.55.55,0,0,1,.18-.22,47.46,47.46,0,0,1,3.62-4,2.41,2.41,0,0,0,1.15-1l.26-.21Z" transform="translate(0 0)"/><path class="cls-30" d="M207.14,49c.58-1.07,1.2-2.13,1.73-3.23.42-.87.9-.82,1.51-.24a10.54,10.54,0,0,0,.8.7c.46.34.39.68.11,1.11a13.15,13.15,0,0,0-1.77,3.33h0a.34.34,0,0,1-.48,0Z" transform="translate(0 0)"/><path class="cls-81" d="M209,50.67h.48C209.36,50.92,209.2,50.92,209,50.67Z" transform="translate(0 0)"/><path class="cls-30" d="M211.44,42.31a9.28,9.28,0,0,1,3.1-3.33c.78-.58,1.44.65,2.1,1.12s-.09.73-.34,1A15.32,15.32,0,0,0,213.8,44C212.82,43.68,212.27,42.8,211.44,42.31Z" transform="translate(0 0)"/><path class="cls-30" d="M219.29,38.48c-.54-.81-1.57-1.08-2.14-1.87,1-.62,1.92-1.25,2.89-1.86a2.7,2.7,0,0,1,2.87,1.1c.12.41-.23.44-.44.58Z" transform="translate(0 0)"/><path class="cls-30" d="M228.94,33.89a8.7,8.7,0,0,0-1.8.55c-1.37.82-2.27,0-3.23-.79-.34-.27-.34-.46.05-.72A3.52,3.52,0,0,1,228.94,33.89Z" transform="translate(0 0)"/></g></svg>